<mxfile host="app.diagrams.net" modified="2024-07-18T10:59:07.275Z" agent="Mozilla/5.0 (Windows NT 10.0; Win64; x64) AppleWebKit/537.36 (KHTML, like Gecko) Chrome/126.0.0.0 Safari/537.36" etag="d7tWB0wjaM5yf3CIbEUE" version="24.7.1" type="device">
  <diagram name="ページ1" id="pvnJgvUiKmOwSV21rMZp">
    <mxGraphModel dx="1220" dy="-353" grid="1" gridSize="10" guides="1" tooltips="1" connect="1" arrows="1" fold="1" page="1" pageScale="1" pageWidth="827" pageHeight="1169" math="0" shadow="0">
      <root>
        <mxCell id="0" />
        <mxCell id="1" parent="0" />
        <mxCell id="M2dhcYQJsznp5afbBtEO-13" value="" style="shape=image;verticalLabelPosition=bottom;labelBackgroundColor=default;verticalAlign=top;aspect=fixed;imageAspect=0;image=data:image/png,iVBORw0KGgoAAAANSUhEUgAAAdsAAAMFCAYAAAA80VxCAAAAAXNSR0IArs4c6QAAAARnQU1BAACxjwv8YQUAAAAJcEhZcwAADsMAAA7DAcdvqGQAAL3eSURBVHhe7N0FeBRXGwXgLwQL7g4tLiG4Fnd3KaU4FPihuBVKcfdixUspFHenuLsFdwuuoThJ/jk3M2Gz2U02gQkhnLfPPLs76xs6Z75779xx8tEIERERfXJOPU+Lz1BXpwj6bSIiIjIJw5aIiMhkDFsiIiKTMWyJiIhMxrAlIiIyGcOWiIjIZAxbIiIikzFsiYiITMawJSIiMhnDloiIyGQMWyIiIpOF+tzInIqZiIhCm5OTk34tdIXa3MgIV8uFiIgotH3uLPrkYfu5vxAREVFQQjurPknYhuYHJiIi+tTMzrGP6rM160MZzH59IiL6cpndD/spXv+j+mwRgiEJQuN5ji5ERET22MqNwJbgCunzbAlW2IbkjY3nfKoPTEREFBIhzaNPkWEONyM7+kYh+UAf+yWIiIgMIWn+dfQ5wX3tYDUjOxKGeExQjzMeY70QERF9KrZyBktgHHkMOPIYWwKtbD/mjYN6riOvTURE9DGCqkTt3e9IBevQY/TK1m7YhjQsba0P6rXAkccQEREFJqQhGdLQDfL+wMI2qOCzdb/1OnuvEdRrWwvu44mIKPxzJFQtORqmth4XZKAGcn+IwtbWest1xvVnz56Jp6envHr1Sry8vNQ6IiKisMLZ2VlcXFwkVqxYEjt2bLXOMjSDE7ohCltbgQq21luuw/XXr1/L3bt31ZdIkiSJRI4cWV0nIiIKS1AIvn37Vu7cuSPe3t4qs6JGjfrJA9fmaGRHgxa3jXXGdQTtjRs3JEGCBJI6dWq1x8CgJSKisMiobNOkSaNyC/mFHLOVb5asbxvsrTf4ha2jL2B527iOS1S0yZMnlzhx4qh1REREXwLkVrJkyVSOWeaawfI6WN822FsPKmwdfaJxG5eW19FHGyFCBL92byIioi8JAhc5hjyzl3WWrG8b7K13eLpGW29oXMdgKLR3ExERfamQY8gzsJV1luuCK4K9Jwf1Rpbr0M4dJUoUdZuIiOhLhBwz+m3BXuYZLK9bsrXeZmVr7wUMlm+KBaO6OBiKiIi+ZMgx5JmRbWBc2hPU/YYgm5Gt39Dy0tE3ISIi+pJYZpy9y8BYPyZA2Fo+wN4b4NJ6HRERUXgQWNZZX4LldXtCNEDK1nUiIqLwwF7OBTfvLB/vL2wt7wjqxbHeWIiIiMKLoPLNWG95v73HGgKtbK1fEJfGQkREFN5Z5571paP8wtbyibZexHodbhsLERFReGEv32zlneU6W/cbguyztX4h64WIiCi8CSzvLK87KkDYGi/i6AuH5E2JiIiCsmLFChk3bpw8ffpUX+M4PAfPnT17tr7GcY5mnnHdkRwMsrI14MXsLURERJ8aAhMLAjM4gWsErfH84LKVc8YSUips7b3Ax7wwERHRx6hevbo6QUBwAtcIWsBz8RpmCG5u2qxsLR+M67aebKy3dV9wPX/+XPr0GyD1GzaRNu06yo2bt/R7Atq3/4B6HJb5Cxfpa4mIKLxBWDZp0sThwLUVtN9++626HRyB5Zv1eluPsSXEzcgGR9/IUfixzpw5o9/yD2fVP3L0mH6LiIjCO0cD91MFLVhnnOUSUv7O+hOcF/rYN7bFxSWqxIkdWw5rgfrixQt97Qd3792XM2fPiatrFn0NERGFd0EF7qcMWkNwM87ysbaeZ7eyDexNgvMBgiNpkqSSNaurnD9/IUBTMt7zqF7VJogfX10SEdHXwV7gmhG0lj5VFjp5eXn5Pdp4Ii6NxfK2t7e3v/uM2zdv3hQ3Nzf12JBAn+3I0WPV9apVKssfU6dJiWLF5Id6df1O3fdE+0FHj/ldUqZMIWnSpJY/Z8+RKpUryg/f11X343Ncv35DVqxaLceOn1DrcubILjWqVZVvvkmlbj975in/bt4iW7dtl6fPnqkq+vu6taVY0SLq+adOn5ZVq9fKOS3sIVs2N2nepJHEixdPPXfr9u2y/8BB7fvekujRo0vBAvmkRvVqElf7AxvwuFVr1sjOXXtUs3epksUlX968MnnKVMmQPr20bNFMIkeO7NDnJSIi/yyD1ghe+FRB6+7uruVMSnFycpIIESKoS2OxvA2W9xm3Dcb1CL3OiM9QV6cAlS1CwBJuG4sl69ufSqpUKSWrq6scO3FCHj56pK8VuXHjply/cUMLrjwSOVIkfe0HZ86clcHDRoin53OpVKG8lC9XRnv8TRk/abLcvn1HNUsj8FauXiOZMmWUmlpIZsmSWe7eu6eef+DgIRkxaqz2no+lYoVyann75o28evVa3X9c+zwI6ayuWdRz3bQKfNv2nTL7r7/VyYYBOwTjJ06S9Rs2SXwtoMuVKS3Xrt2QKVOnB2gWD+rzEhFRQNYVrrHuU1e08Cnz0OEBUpYceeGQcokaVQrkzyd37tyVK1euqnXv379XFeU3qVJpP+Y3ap0lhNz8hYslm1tW6d61k9StU0tVvG1a/aT+GIcOH9Eun8mdu3clf7680rplC6ldq4a0/V8rqVKponqNq9euqZMGo/LEc7F079pZEiZMoO7PmDGDjBo+VBr+WF89F6+B18LzHmkBDYePHJWz585LkcKFpF+fX6X+D9/Lrz27S+lSJfxCGxz5vEREZJ8RtAYErhk+Vd6FKGwtmRG8aCZOmjSJClhUjbe14D1x0l3y5M6lmn6t3b9/X1W9OCyo2U+t/Q4N6jtgkAq523fuSOQokSVWzFgqyNBU/PChb9UcLVo0dZkggW+oLl6yTL0XmoAjaRU0mnwhcaJEcvOWhyxfuUqrgMdI919+lb379qv74N27d3Lp0mU1yKt0yRISVdtpADSD58iRXeLHj6dugyOfF69HRET+IWQt+2iNCjeow4KCw4xc8wtbR1/c8nFmfCDAAKic2bOrPtRbHrfVoUDe3l6SI3s2f23iBm9vH1WVFiyQX3r16BZgKVe2tMSLG1eaN2ss6dOnk2UrVkr7Tl1k7O8T/EK3WJHCUq9uHS1Qb8nwkaOlY+dusmPXbvW6qKxRieJYYHf305I2TRr5sX499X4G/BZ4LPpyjQA3OOE/i8/tyOdF3wAREX1gHbRoOg7OcbjBEZKsC+xxYXKLjmoQTbSwd98+OXb8pGTMkEGSJEms1tmDKhT9sRjRbLmkSZ1avWbqb7+VX3/pLuPHjpZqVSurgUnTZ85S/al4btUqlWTS+LHSo1sXVYnOmPmnqoRvaRXtzl27pEypkqpZuFbN6pIrZw6tinXR3/kDVMTWVSluY721oD4vERH5shW06KPFdbMC91MKVtjaSnpHEz+4kidPJunSppMNG/8V91OnVD+u0TRrDcGYPFky1WeKw4YM+GynT59Rg6CMEESFmSBBfKlWpbLkzpVT9eOiP/fly5fq8QjA7NncVD8qqk/0yb56/VoNZIoSJYpfxYnnnT13Tl0HNDmjfxePO3DokHouqP7mgwfVeoMjn5eIiHzZC1rDpw5cW/lmeT0knPv27dtPv+7H3ovaemNc4tCdxIkDrzoDgyA0+j8LfVdQhRrC6/Wb13Jcqz5xKAzC0agkccgMZpLKmCG9GhWMZtvI2nMOHTose/cfEA+P22r08rr1G2THzt1SMH9+FaajxvwuHrdvy8WLl2T7zl0q7PJogVuoUEE1ShmjiDEw64S7u6xZt0G9Fw7tiRcvrgpBrH/0+LGcv3BBtmzZ5vsZtSAu/N13EitWLO0PHVtOaY9TA6XOnld9rytXrVGHGb3RvkuiRIlUwMeMGTPIzxsrVkz1/kREX7OggtaAYixTpkxyTiuC8Bxc4ra9Is0ejKnB9hyFmSMLWF+3vOy/5YH0K52ov8OV7cemekhgtC4GSrlmzqy+vD34Uuhz7dKpg6RInlwF9+q161RV2axpI0mWLKlEix5NvRaOf0WfLUY6I8DR94pqNlnSpOpQI9yHajqRVqV2bNdWMmXMoF1PqL1OY0maJIk6/Oey9tyGDeqr+yzhvX9u01rtAFy8dEl2ae+VN09uafCD73sYHPm8RERfO0eD1vCpK1xrH5ODfpNaWFaq1texWE5oYX3dw8Pjoya1CO9QFeOY2nJly0gDLdzZH0tEFDQELcLSkaC1ZBm0eG7Hjh31e4KGSS2Sa0WQ5QQW9q5jAevrlpd2J7WgT+u///6TTZu3qOsZ0qdj0BIROcgYABWcoAWjwsVzgvO8TwnFqKVAK1tUrWBUsMZ9xnXjkpWtL8z8NOuvOZI8aVLVL/vg4UNtL+mU6rPFRBdNGzcMdv8BERGFHqOyRWVqVLG2KlvAdTDuM64b1OODqmwRohQ8LtFc1PG8OFwIfb/oi02YKKG0atlCmjdtzKAlIgpHgpOTditbYwHLqhYLK1siIgqPgqpsjdtguQ6Lsc6A6+yzJSIiCiVBhi0qV0vWt4mIiMKzT5GDrGyJiIhMxrAlIiIyGcOWiIjIZAxbIiIikzFsiYiITMawJSIiMhnDloiIyGQMWyIiIpMxbImIiEwW5NzI1ovlPMmWcyMTERGFB9ZzI1tft7eAcQm4bsyN/MnCliciICKi0OTp6alf+3SuX79uStiyGZmIiMhkDFsiIiKTMWyJiIhMxrAlIiIyGcOWiIjIZAxbIiIikzFsiYiITMawJSIiMhnDloiIwrXGjRvr1z4fhi0REYVbRtB+7sBl2BIRUbhkHbCfM3AZtkREFO7YC9bPFbgMWyIiCleCCtTPEbg86w8REX2ReNYfIiIi8sOwJSIiMhnDloiIyGQMWyIiIpMxbImIiEzGsCUiIjJZmDz058mTJ/L06VN59eqVaJ9PX0tEFDLOzs7i4uIiceLEkbhx4+pr6Uv3JR36E6bC9vXr1+q13r9/r/6niBEjhkSPHl2/l4go+N6+fasuX7x4Iffv35eIESOqjWnUqFHVevpy8TjbEEDQXrlyRQVsxowZJXHixAxaIvpokSNHVgsq2tSpU6ttDLY12OYQhZYwE7aoaOPHj69ClojIDAhdbGOwrcE2hyi0hImwRR8tmo4ZtEQUGlDlookP2x6i0BAmwhaDoRIlSqTfIiIyl1HhYttDFBrCRNhi1DH7Z4koNEWKFElte4hCQ5gIWxzegz1NIqLQxEMLKbSEmQFSREShiTv4FJoYtkRERCZj2BIREZmMYUtERGQyhi0REZHJGLZEREQmY9gSERGZjGFLRERkMoYtERGRyRi2REREJmPYEhERmYxhS0REZDKGLRERkckYtkRERCZj2BIREZmMYUtERGQyhi0REZHJGLbkkBcvX8qIUWOkRu3vpXeffvLk6VP9HiIiCspXE7YzZv0p4ydOlnfv3ulrzHH16jWpU6+BnHR319fYd+nyFSlSvLSkyZDF33Lg4CH9EWHH4cNHJUuWzLJ8yUKpUb2a7N6zV7/n42zbvkPadegsL1+90tcQEYU/X0XYvnjxQg4dPiIRI0aUSJEi6WvNce36dXn79q0kTpxYXxO44sWLyukTR+XKhTN+S/58efV7P7h+/Yb82KipCmhHLVuxUkaMHiuvX7/W1wTu3v37Uvv7+lKlei35rd8AWbJ0ubifOiWvXvl/vpeXl35N5MmTJ1KzTr0AOwzG0rV7T1UV2/Pw4SOJGTOmRNL+NiG1eMky6dile4DPGRh8pr79B32ynQYiosB8FWF789YtOXnylIwaM85mIIwZN15/pO+G29ZjLJdevfvarJDfayG0d98BFVAFCxcP8LxqNevKo0eP9EcHT9y4ccXZ2VkuXryorwkcwuTfzVslYYIEEjVqVH1t4BInSiTz5/4lM6dPkYrly8mjx49l9Njx8vuEiZIjezZxdz+lvsOq1WukcKHv1HPwuZYtXuBvZwHL3L9mSfz48SRf3jziEsj7X712TRIkiG/6TpAl/J2mz5ilghbfOSiouidPmSaZ3XKGuNXBx8dHtXZ8X79hsHcMiOjLF+7DFhu5LVu3S9GiheXcqeP+AmHvrm2SJXMmyZwpo/5okTq1a/p7jOVyaN8uccuaVbJly2ozHDw8bsuRo0dl3erlAZ772689JUmSRA4Hn7WYMWOoinfX7r0q6J8/fy7rN2yUwUNHqMrd2rVr1+Xy5ctSsEA+fY1j8L0SJUyoPS+/tPqpucyeOU1+6d5VYseOJT17dJOVyxbJoAH9JG6cOPozAtq7b7/82qef9OndS/2eESJ8+GdmXQlPmTZDJk6e4m+nBDs81gLbCerRq7faAXDNnstvHZrnbbUC4N/DihWrZOHipTKwfx9Jnz6dfk9A2GFB90OZ8pXk6dOn8u033+j3BA9CtkWrNupvlSnjh39rRPT1CPdhe/fuPdn07xatUisvkSNH1tf6evTosaowUqVKpa8J3M1bHtrr3bW7wdy1a7faeKdJnVpf4wvhePHiJbWxjhYtmr7WcQjTO3fuStQoUWT5ylVSpkJl+bFxM7l3/4G0bNFMokePrj/SFwJl+46dkjNnjgCfxREImYGDh8rhI0f1NY5Dc/2gIcNlYL8+UrliBXFyctLv8WVZCR89tE+FunVljIC2FthO0PAhg6Rqlcr+muN3bd8s6dKm0Z/tC7/L5i3btEp9koweMVS+K1hAv8c2r/decvv2Hflj4u/SumULcXEJ2Y7SvXsPJHeunPKntuOS1TWLvpaIvibhOmyxcV25arUkTZJYcuXMrq/94MaNG9rGP4663xHHjp+QdOnSyrffBqxwEIaLly63GeoIr4uXLquQtg4fe9B02b5jFylWsqw00IL1j2nTJXKUyFKhfFmpUa2qrFy6SJo0aiAJEybQn/HBM09PVV2iqdf6szhi3j8LVF9qZq3qD47jJ06qIBs2ZIB676C+65PHT8Tb21s1N4eGffsPyIBBQ2TwwH4q5IMSK1ZMVZ1nc3Nz+O9mS5nSJaVN65YSzcVFX0NEX5twHbbY+M+bv1Aaa6H075atMuvPv9TgJUAQnzp9Vtyyukqs2LHVusB4ej5XI2dRDcWOFUtf6wt9gHO1gEqd+lvVR2kNzcuPHz+WDBnS62uChg3z+HGjZcfWTWoEMCrFhj/Wl2ZNGmvV2Va5fOWq/siATpxwl5dawNv6LEF58+aNXLhwUQoWzC/Rrapw3IdwtAWV+8jRYyVZ0qTSqUsP1ZRbqmxF9Ztjx8GWO3fvqmbr2LFiq9ceNHS4VKhcXTJkyebXHIzDjaxhIBcOP0Ifav7visqWrdv0e+yzbNouUrjQR4UnEVFwhduwvf/ggdpQ16pZXfJqoePm6iob/90s//u5gwo/9B0eOHhQihYpLBGdnfVn2Xfq9Gm5cfOmlCpZPMCGeu/efbJJe+02rX6y2dR48NBhrSJOI99+41hzdWBcs2SWShXKy7TpM20OskHwY+BP6VIlVd+ro96/f692QKJEiSIlSxSX1WvWqd/QgP5PjFS+YGOAFoL2546dJUH8+NKkcUPZuH61XD5/WmZO+0N997btOtgcGHZeC/W0aVJLtOjRVAXevm0bmT/vLznjfsyvObh71876o33hOw8dPkrixYsnJ44ckBVahY9KPjDY6ULQ9u/TW/tdSjBoiSjUhduwRaBi8NNPLZqpMEVfKjb+KVOkkEZNW8is2XPUISw4djQo2MAvWrJMSmkhlC6d/wE1CCj0/f6v9U82B9s8ffZMVaJFChUK0LcaEgiKhg1/VO+7dt16dWnpzp07sv/AARW0aH5G9YfqEiEcGByD/MfU6ep62bKlJW+e3DJ4yHC/yStSpUyhfqt9+w+q2wY0j3fq2l1+atZUxo4eoX5z/N74nGhuHzZ0kLx9+07Wb9ikP8OX0Y+dMWMGv8ej2TZO7NiB7vygzxytBPV/+F4FdNKkSaRa1cra3+ilVnXb/o6nTp3WQj2N5MienUFLRJ9FuA3bnDmyqxHAlk2hMWLEkF6/dJNKFcurQzmqV6viUPWH8Fq3foM8e+apmjstYeNdo3pVqVm9ms0N+d69+7Uq+qkU0SrokEDf6djfJ6i+W6NptXrNuuKlBctMLUTRD2kJVdytWx7qEJVRw4fK4gXz1KAqjE62B828uD+13heNsMNOCpp4Ebjoc0aw5cmVS/0WxujnK1evSs9ff5MmjRqqFgTLUccGhGeh7wrKmbPn/B0uhdHUOOwnuKNzvby9bTZlo0q+f/9DJW4J/dzOzhFUfy1nviKizyFc99naggBJlTKl6s8sX65skJXO9Rs3ZdjI0VK3Ti3xuH1bHZ8ZVJVoQN/in3/9Ld/XraUqw+BC5fdj46aqaXfl8sWqWRXNswv/mSPfFfAdSbth079+IYZQXLd+o2TKlFG6d+usqj58V4wAtmzGxQ7DkGEj/Ga5wn137t6TdGnTqtuAnZRuXTvJLQ8P2bFjl1qHyvbmTQ/1WPjvv/+keLGiUl3b2Qjsd8Sxvgj09+8//G43bt5SnyOJg4PTDMmTJVODwjDaGn8HfL6Vq9aokcMIYlvix48vo0cME28fb/m5fSd13DURUWj66sIWlSBGzLb/uU2QExoghIYMG676e3GMacf2P6vjM9FHGxQE38hRYyVaNBepVrVKkKFuDUGCpuuqlSvJ/1r9pCpEwOugv7J2rRqyeuVS6aNV78Yxvzdv3lQBisOBjIod9+HxN7SdBgP6Z6/fuOHX54tm1njx4kiyZEnVbQN+n1o1qsumzVvUY5MnT6aawvE+gFG6P7dpLe+1sJ8ydbrkzFNANVujWRk7GoBm7kuXL6uQjBo1iloHGNmNw5ICO17XFvSJ47jfffsOSBbtvTBJBA6rwWeLEsX+yGu0agzs31cyZkivRnmjKiciCi1fTdhio4+BQ12695QO7doGeegHgrbXb33VKGRUiaj0UA03blBfjbrFoT72IGhHjxkn7qdPS+9ev/gFZXC8e/tOHjx8KBnSp7cb1GjuxRSUhq3bdqgdgzy5c+lrtLCNHEkLNP/v//jJE/W9EMgYnb195y7Jni2bzT5lhBgOkXr9+pX6DdKnSytnz53X7/WFUdpoJsaxrccO7ZMUyZNL919+Vf3Vly5dVhNxFPqugN/3QHCfOOkurq5ZVNWOChfTOjo6OxN2An4fO0ounDkpe3ZsVf2+qN6xUxEYfP4unTuqLgYMlEN/MxFRaPgqwhZNmBj807Z9J+nSsb3UrGG7f9WA5lvM+PP69RsZM3K4X5WI59SqWUOFEmYWstWcjBHLqJxQuWEyBIRTSCAk0fy6d98+v8OVAoNg26NV3JUqVVBzDRsQyLiN/lED+nXjaBVlosSJVB/may38SpYopnZIEMIYqY0FJ1X4Z8FCNfAL3xlVcoH8ebVgdvPXbxpBew800WInAzNkNfjxB+11PGXyH1Olddv2qk87n8V8zw8fPVSzWyH0wNvbx+GmeUv4DKi6Md0mjjm27J+3xzJwf+7QKdDAtfw9nj59pj4jms7Vbe33tncYlDU08xu/6ctXL9XfEzNS4bbRukBE4Vu4Dlts1LAxrlS1huzQqre/Z8+wO5AHEMoYOFWz7g+SK2cOmTR+rOr3tIT+wkYNfpRVa9bKEYsZljDgB8+tVLWmquxmzZgaotmbDAjJurVrys5de6Rhk+ZqOkL0HxsbbSyWA45wbO1DrRrHHMbWcufKpQ7BOX/+gvZ6u2XqtBnSUAtEBI9RJWKgEn6v8ZMmS/lK1SR3/kJSUfvdELCdtR0UY3IMzNSEAU+Wv2GJYkWlYP780rR5KzWAC/NCP378RF68eKl2OFo0a+JvhDGqXVS0Rj82mpexU4J+WAR2YPCd8TssXLxEfmjQWIYOH6kO6QnOMcX43hg8h1YAzHNtrw8XO1t9+g9Uv0WpchVVc/tPrduq281atJJnWuA64uix4+o5WPoPHCIbNm6SQsVKqttr1q7TH0VE4ZmTl5eXOnbEOIQEl4Et2Ju3vu7h4SFubm7q+SHh7u7+Uc+3B8eJ9uk3UB1bib7PoGZTwuOHDBspNbVKLLCJDxCsEyb9oV4za1ZXtQ7zFGNwUru2/1OVYGCVc3AgVFeuXqs20AhL45hSNB//8/dsvybjJcuWyxWtEkUwWgYbIMDGT5gkc+b+o6aM7Nmj62ed2AHzHN+9d0/19xqfARX27L/+lhUrV/sLP4T70EED/I5fRl9wl26/qD7Y7+vUUt0BIZ1vGn/vcb9PVIdt4ZAw+vqYte2h0IEWtE/t+vXrklwrmLBtQlGBS+vr9hYwLgHXI/Q6Iz5DXZ3CddgSEQWG254v25cUtl/NACkiIqLPhWFLRERkMoYtERGRyRi2REREJmPYEhERmYxhS0REZDKGLRERkckYtkRERCZj2FrBJB04YQFO2/Y1wPfcsnWb+t5ERGQOhq0FBM7mLdvURP044fjXACcuwInX16xb/0kD99LlK9K6TTt1YgZHYFpKzHXsfuqUvsa2169fy+q169Q8xdZwpqZmP7VWJ1D4WDjRxKzZc8RLP0HCrt171AkPcIaij3H4yFGp/X19efDgofptpkyboU5u8KXBmZ7adeis5hMnoqAxbC3gXLfYiDRt0ijIeZTDC8yj3LhRA3V+WHx/R2BuYyyBwTlvfbT/4gdx2jtLLi4u2uL/zD0IYQQc5oXGeYjLV66mzm6EswxZ7xxgOrVYsWJJHP2UgjijTscu3dXJEWwt9r4Dzuhz+PBR+a5gfnHWfh+8D07/hxM64AQKHwNnW0r97bfqPMc4YUXSJEnUyRCwo2AJ71ezTj31/UMCz8PzAzttofH7BPW3tOXhw0fqbFKRLE7xSET2MWx12NgtWLhYmjdrHOBUbZj8vneffurE6FgGDh6qJs43jBg1xubG3FjsbfBwlqAevXoHOIUeXhvvh+rQGs4b26ZdR/U5cLL2gUOGqQ3fx8D3bdWyhSxctERVXB8Lp6LD2YXSpU2nToKAEJ86faY0bvaTquwM+F2M3whnwMFZf8pWqOzvd5s+808pUKiYjB0/UTJlyiirly+RYYMHqhPXW85Bak/MmDFk0/o1cuXCGX9La+372nPs2HFJniK5pEuXTt3GCQtwFqPs2T/NHLqozr28vNXOQdUqlaRrl44SO5gn0f/ccMrGBAniq7NCEVHQeCIC3dx589UZddq0bulvI44NbYdOXVU18lPzpvLfi/9k2IjREjNGDBk5fIjau3/x4oXNc86u27BJVq9ZKxPGjVGn5rOE6gnnvW3etIkUK1pYrcNviWbUvv0HqQD9c+Y0LbDSqPvg9Jmzqmm2WLEi0uqn5vLsmaeM/X2C2niPHztK4sePrz8y+PDec+bOE+cIzup8tIExKqE6tWuqS8AOB5pEDagA8dkzZsggmbWQzJ49mxZeaSW2Vnla/r4I5kuXLqnTEaI1Ab8lTiyfI0d2iaZVunhd/PaW72UNnwc7LZaSJ0smkyeOk5l/zlGnJ7Rl+JBBAV4Xf5c+fQdI+3Zt/X57/NvAqfYCM3/uX5JfP2evrc/jCOwAdO/aWV3HjsbwkaNl5rQ/1InxA4MKtWfvPna/J+B3T5UqlVSsUE792wHjeYUKFgj09wVUys1b/k91sdhj6/cM63gigi/bl3QiAvRJ+WB5//69Wt69e+ejBYfPmzdvfLSNuM+rV698Xr586aNtBH3+++8/H+3L+Tx79szn6dOnPo8fP/bRKkKfkydPatvqkPvY538sLbR8Wv3vZ59Tp8/oaz74e+4/PvUbNvHRqk19jY/PxUuXfYqVKuuzfccufU1AeHyjpi18Vq1Zq6/xD89t2KS53+vit+zQuZtPlmw5fb6v39CndLlK6n0sTfpjqo+2wVOf13Dt+g2fkmUq+OzZu09fE3Jnz53zadWmnb/Xt2XR4qVqsUXbAfOZOHmKz6Ahw33eaf+egoLHaDsMfr8lPkOnrt3VvzPQAsfue1kzfkNcwsuXr3x69+0f4HcEW6+Lzz57zt8+NWp/7/cat2/f8dGCU/2d9h84qF4frxsYvC5e35aHDx/6aDtZfq9vD96r5f/aqv/nQgKvj++B17EH3wPfZ+u27foax+C3wP8Tx46f0Nd8uT73toc+DrLoUy/4N4Fcw/9DyDmsw/YI/y8iB5GHyEXkI3ISeYncNDLUyFQs2KbIL6fwUdmMDPfu3VMVVvLkyfQ1vlBl7dqzR0qXKilxYvv2AwKqphzZs8vefftURWgLBtRoP7w6b6w1VMHrNmyQsqVL+b3uY61yiBwpkiz8Z64M7N9XYsSIrtZbQ7UXMdKHfrIoUSKr/j/0LX6sZEm17699H3snU3cEqu81a9dLrZrVApxX1xY8plKF8uoE8vgbbNj4r1SrUkW1GIQ2NHdP/mOa2oMFfJ5/FiyUcmVK+/v7fwy8Nvqg/9P+bQVG+x9d9V9HiBCyv6uT9j7OzoH3p+JE/HifaFbdJkF58viJoFUrfnzH++OJvnYMWw2CDicjjxLZ/+AXrMfI1owZ0utrfOFE5smSJpF79x/I69cBR6eiKRL9vxXKlbW5kb5y9apcvHhJihTxbT6GtGnSyIhhgyWraxZ/zRCWypUtLWfPnZely5arwMZJ7P+cPUc11Ronsf8Y+F7x4sWT+/fv62uCB/2z02fMklSpUsjAwcNUn/LyFavs7pAYfd3lKlVVI5EzZHaT8RMnS9MWLdV6o7kaTbJGP67lgucHBSN9MWpWq/L8LUuXrdAf4Qt/jyHDRkivX7pLCv1E8nv37pNHjx5Lgfz51e1PIWpUF9Us7On5XN3GSfQxQArjAiz991/gYRwU/Fu23nm05uX1PkQjoe/cvav6amPHiq12HAYNHS4VKleXDFmyBetvQ/Q1Ydhqbt++I3HjxJZIkf0P9njz5q281fb+bY1MRj/ijRs3tLANeOjDiRPu8lILnjJlSulrPkDwbNm6XdKnTydJkyTW1zoGgTxm1DCZPGW6ZMqaQ7Lnzq8qyR7dugQY1BUS2IBiJG9IBlyhCkTQ7t2/X8qUKqX6Ghf+87dWGS6SGzdvqR2D9Rs2qn6/c+fPq+egf9IYsOR+7JAM7NdH9u3e7rfO6P9DXyBunz5xVH6sX89vwBOeb4y6xQYeg6zQb4lL3D5w8KDaiZrw+xhZvmShv6VWzerqtQF/k0NHjkqHdj9LkcLfqXX4u587f0GaNm6odkIMeH3X7Ln8QgWLrdG86L+2fEzlajVVsOK14saN47dDc+jwEbXuY/rbAZ/B8v3wGfFZsRNjud7WZw0uHCqWNk1qiRY9mvp/o33bNjJ/3l9yxv2Y39/O6HsmIl8M2yDEjRNHHa7hKKOJGE3PiRIm1Nd+gHDYvmOXVCxfPtiHF6H66tz1F6lfr67s37NDtmxcJ6lSppT2nbqogVwGBB+OEUVl+X39hnLS3d2vukQ4N2neUlXfnwpee4VWwaKKnTzhd6ldq4ZWwUVVlVW8eHHUQLB83xWVP7QAwmAcVM/W8LsdPHTYZtNzqlQp9WsBoUpctniB2sBvXLtKChf6zi+w8+fLpz8qcGhJwG9apnRJv1YFNOm3bNFM7RRZqlqlsgp9I1Sw2BoU9HOb1n73HzmwR41sjqL/vd2yuqoWCuyAbN68VSpXquhQk3tg8BksPxM+Iz4rdnos13/sACY0PePfYcaMGdRnxu8VK1ZM1YLzsd+BKDxj2GqSJUsqT54+k3dv3+lrPkB1i6YyW9Anhr4xS2gixkjSQt8V9NtwW3I/dUZVMsE9jARNtGN+nyBFixSS/7VuqYI8depvpXu3ziq0UbEYgbpnzz5Zt36DLJg3RwVG1+49ZcnS5WrUMj5bem3Dj4rPGjakT7XfAYd0BAeed/vOHRk6eIDkzZNbrcOEDd1++VW2bd+pPvP2LRtl5dJF0qxpY7+dEMtqDNUoJqvIW7CIul2keGmbhz4F5paHh9qJQIAZv8Xz5//5O5zIWCxHTn9q6I9NqTdFA35TBKsBf7cLWmBhIpEECROIm1tW/Z5P72MPC7OG74HDfjJlzKivISJHMGw18bTqCH1Xb94GDFVsXGz1a2EQESo3637erdt2qD7e9OnS6ms+sDUwylH3793XqqFzqnKzrCDwOtmzuakQRbDA6TNnpGSJ4qr6KFWyhEwaP06WLFsuWbLlkoWLl0jdOrVsViE4FAQDZhIlSqSvcYxqSvy5jXynVa2+g4oWqebLfHnzSIniRdVnTqy9pvXOh1GNXT5/Wnr90k0FVP0fvhf344dl1/bNaiAawsKRiSQQrkeOHpMuHTvI5StX1GAn7NSMGz1CVbz16taRUyeOqMNrcJjOp6jy7Hnw4IFEtJjsAQPl0GWA/lpImTKl2oGbMXO2qqjtVYRqMFxE2/dhx2LE6LF2J72IEMHJoUoTf7vAfl8c9oRZ1QzoEsBnTxLMLhCirx3DVpM4cWK1YfLwuK2v8WVUj9iTt4RQwkYnQ/p0/vrzMHr5xMmTakBN9OgBRxPbGhjlKC9vb/F67zt1oC34TJhVCRo3/FGaNm6krgOaQhEwxw8fkLWrltvcEYDbd7TvrwWiZVUWHEZz8rLlK2T2jGnyfZ3a2u8TdF8yghHHDBcvVlTy5s4tY8b+rkL21auXaoIPHCMaFDSjX79+QzJlyiA/fF9XJv0xVc06BQgmTG7hEvXD3yqkguqzRRDhs6dIkVztpKHqP3X6jPr3gBHXBjRTo+L/5ptv9DUBof/c3qQR+Hd0UNvBMip4vBdm2Mr/XVH1mXLkKSD/btmqug3sBTJgJLKtVg4wRuNbPv/Y8RPqmGh0rxCR4xi2GvQ5ofrCDEbGxguwgcZEBdu37/TXDIjKyd39lBQs4H+U6jVtY3/mzDnJmSO7vuYDvC4GRmHKv6BGidqCpl30XeIkCageDZjxCX2dObJn89toYsNuuRMAOOQE39NetYPPh+q48HcF1eNCAoG3cPFS6dmjW4C+Tlvwnv9u3qoOFfq+bm01qQgGKJUoXkwLyymqXxPVXaLEgVfaeJ0NGzeJa5bMagcJ7z1u9EhJq+1UYCdk1Zq1WtUdsFkfz8MhLMERVJ8tQg87CKj8ps2YJRlds8ufc/6W2rVqqvdHU/6EiZMlgnME7d/RVb8dPHQTrFi5WrV+BAWP2bDpX/U7oc8at4eNGKUOl9q6eYP6TEcO7pXqVauov2nl6rVUN4Ijr20JA8Ru3vSQfPpkHfgtMeGIq2sWVQ1jxwJdFHgPe/Abb922XYqXLieFipVUYwks//0SfS0YtjqceACVEKpPAzaO5cuVkYuXLsvQ4aPUYUCY4an/wCFSpXLFAH1tFy5clNixY9lsYkMQbdYqDetmYEehubjhjz/IIq2K6jdgkKpYsJH75dffVODW1Tb4IXldAyp1zAdsawS1o9CMjR2UNKm/VbeNZlxjZiVLCLnZc+Zqy9/SscPPfqOp8ZvjN/q11y9qI43rQY20RpWHHZlqWrgYgYoZuyJo1zGDl7a9lzx5cqn1ljBivK/2W965c1df8/HQz4xjpBPETyCdO7ZXwbdq2WLVmoAgxuxjCL1BA/pJlUoVZc7fc1X4vH71Ss3LjWoS8Bq3bnkEmOgf4bVj525tZ++0GliF74vn3Na+Q9Eihf39VqhImzVppFoZ5s1fIL379vfXJYIxB2jitnWoF1oaps2YKVW1f+epUvq2dDx89FAuX77stzOJ4/WDCs7zFy7Ixn83y5oVS2XH1n/VTuumTZv1e4m+HgxbHQ69wGElM2f9paoMAw63mTZlourLxPGgrdu2V8GMvj/rcLuoTzuIyfCtndHCEU12HzO/brmyZWTenFlatXFLHSuKqRvRF/rnzKkOVZL24PtOnTZDfqhXV71eSCVOlFBt/FFJGseR2oNKu6RWmU0cP9ZvwNT79+/kjV59oYkULQUlSxRTt8HbG6H0Wr/l69GjRzJk+Ej190iaNIlah0DCAC1Msbh+40bp0bWzvxAyPtv1Gzfl6ZOnNpv8QwIhumzFStVfbtmygM+DEeEtWrVRh/380r2r+jwVK5ZXn+WPKdPUIUCx48T2a53IkiWLGhewc+cuv0DD4K9/5i/Uvu8I6d2rh3yjj9JGXzB28vbs3asqZ+zIYFIV7JC5ubmqfxszpk7WAvSZtqM22O/fN3aMviuQX82JbRzni/fC/Nudu/VQVXPDhj/67cBc0nY6UdEa4YtmcexEoEXI8v8ZS/fuPZA8uXKp74X/XwrkzyenTgc8YxNReMewteA7oKeYmijCsskNgTtl8gS5cOak7NmxVVULOLTFGo4tHD9utGr6tITXQrOfvUkurGFOXhwLajkvMmCjhwn4/5o1XX2WY4f3y5BB/dXhPyGFjetfWoVZsGD+AM3iwYVmzAF9f9NCwkNq1f3BX7+msaC6MkZ3f/NNKn99fy9fvtIqrxeqnxPHciJALY8/xe/4SNvpsYT7p2p/G8vPjmb1tu06SpbMmWXShN/9Qhgw5zJO8oDPgskuKmmBF9Jmc2sIQ/QvI8Asob8dFS/m3cZAMuOQLwTuL927qOoP82FjJi2jjxZBiuOOFy9dLm458qjPW61GHVXB/j17phqMZkCwd+3UUY4eOyEFCxeXdJmyqj7rvr/1UhOeAH4nzExmeRgV/j01adxQMmfOJHXrNVDvgffCnMwYuIW/peVOCvqiixUtokIY8HwMaMP3qVi5ut/fGAvOJoRm58SJE8rho0dVRY1/a/sPHJSsrh8/AQvRl4YnIrCC74NTuGHmoGpVK+trPw4mccAsQWNHj/SrRsIKnDweTZaoxowKxhKaIm1NQP8lTjpPoQ//P6F5fMDgoWonCifeaKRVyx/T5fEp8UQEXzbPL+hEBAxbIvpqcdvzZfuSwpbNyERERCZj2BIREZmMYUtERGQyhi0REZHJGLZEREQmY9gSERGZjGFLRERkMoYtERGRyRi2REREJmPYEhERmYxhS0REZDKGLRERkckYtkRERCZj2BIREZmMYUtERGQyhi0REZHJGLZEREQmCxNh6+zsLC9evNBvERGZD9scbHuIQkOYCFsXFxd5+/atfouIyHzY5mDbQxQawkTYxokTR+7fv6/fIiIy35MnT9S2hyg0hImwjRs3rkSMGFHu3bunryEiMg+2NT4+PmrbQxQawswAqeTJk8vz588ZuERkKmxjHj16pLY5RKElzIRt1KhRJUWKFPLff//J+fPnVRMPB00R0aeA/lmELLYt2MakSZNGbXOIQouTl5eXD66gScW4DGzx9vYOcN3Dw0Pc3NzU8z8FBO3Tp0/l1atXon0+fS0RUchg1DEGQ6GPlk3H4Yenp6d+7dO5fv26avVwcnKSCBEiqEvr6/YWMC4B1yP0OiM+Q12dwmTYEhERBeVLCtsw04xMREQUXjFsiYiITMawJSIiMhnDloiIyGQMWyIiIpMxbImIiEzGsCUiIjIZw5aIiMhkYSZsPTxuS5t2HSVDlmxSoXJ12blrt5owAxYvWSZpMmQJsBQpXlouXb6iHmNpx87d0rtPP3n37p2+RtQUbf0GDJYDBw/pa3zhPQ4eOixVa9ZR7926TTu5du26fm/g7t2/L9169ArwGV6+eiWTp0yTnHkKqGXYiFHy4uVL/V77MKVcj169ZcSoMfoaX69fv5YpU6f7vR6uYx0REX0ZwkTYYlLwPv0HSrWqleWs+zEZNKCPjBw9Vs5fuKDur1O7ply5cMbfMnPaH1K40HeSKmUK9RgDAmvDxk1SpnRpiRQpkgq+ef8skDIVqsjipUv1R32A9xg4eKj07d1TvXfJEsXVZ8FnsgfTSY6fOFnKV6wqh44c0df6eu/lJaPHjJNnz57Jnl3bZNuWjXL/wQOZOWu2ui8wh48clXXrN+q3fOE502bMkidPn6rX+3fDWjnhfkqWLF2uP4KIiMK6MBG2qCwTJIgvJYoVVXOY5sqZU4oWKSJbt+3QH+HfUy3I5s1fKLVr1ZDIkSPra33duXtPXmpVZPbsvtNHnjlzVtxPn5bZM6aqALbm7n5a8uTOpT0+u3rvShXLSzQXF7kaSHWLyhlV86L5cyVN6tT6Wl+ois9fuChNmzRSrxMndmxp07qV+o4PHz7UHxUQvtPipcukZvVq+hpfd+7cUdV4/R/qqdfD79SkUQP5d8tW8fR8rj+KiIjCss8etmjGPX7ipOTMkd0vODGfZJ7cOeXCxUvy6lXA5tJjx45LwgQJxC2rq77mg127dkuGDOkldqxY6jaCdNjggZIqVSp12xrOo2stYqSINtcbqlerIl06dVDBZw0VMcI+isVOQPx4ceX9+/dyV9sRQKU6fORoVRkblS5+gwULFknB/Pklq2sWtc5w8+Yt7fnxJGHCBPoakW++SaVO0ICKmYiIwr7PHravX7+Re/cfSOJEifQ1vqJFi6b6cd+8faOv8YW+z6XLV0j5cmUDVLWo9Hbv3SelShb3Nxl0YArkz6dC/fDhIyrA1q7bIC5RXSR9+nT6I4InRowYqvn6zdu3+hpR19Fn/OaN/+9i2Lf/gFy5ek0qVaqgr/kAv0H8+PH8fVcEOfpscWYkIiIK+8LMACmEqzUvr/fi4+2t3/J17tx5dZ5bo5nY0sVLlySBFkzWTbuBSZIksfxQr640b9la0md2k7HjJ0qjhvUluo3P4wi8d9KkSeXP2XNU0zBOiP/33Pny4IFvE3JEZ2fp0a2LtP+5jbp+UQv6CZP+kJ+aN7X7njg1GB5rCWdc4ukHiYi+DGEmbG1Blejs/KE5F82t6MdFfy76Qi2hSXbDxn8lv1apWle8gVm+cpUsX7FKNm9YJ5fPn5YZUydLz1/7yLHjJ/RHBI+LS1T5rVcP1cRbsHBxKV+5mqRPl1Zy5copUaJE0R/lC48ZMnyEtGv7v2BX0viO1q9HRERh02cP20iRI0ncOLHlxo2b+hpf6PdMlDChFigfghOjgN1PnZJ8efPoaz7A4KNbHh4277MHzc4rVq6W5k0ba9VoEtX07Jols9SqWUNWrV4T5Ohhe+LHjy9jR41Qo5v37NgqBQrk0ypRL1VFW7p69ZoabNWgcTO/w5lw6M+UaTOkZp166vuiX/j2nbv++q7RLI2wNfqliYgobPvsYYvm0SyZM8uZs2f9DRg6c/ac5MiezV/1dvHSZRWIKVP4P9wHDh0+oppwEdCO8vbxViFmqy/1zZu3AZqwQwqfLVXKVFpwfhjkBPnz5Q1wSNPwIYOkdcsWsmzxAokbN66kTJlS7Ug883ymP8u3HzdunDiSKLH/fm4iIgqbwkQzcj4tdDAiecvWbaof8uixY+pwl1IlS+iP8HXk6DHJlDGDxIwZQ1/jC4OmNm/eKiVLFHN4YBSgMiylPWfylOkqyHE4D4Lxn/kL1TG8GOgUEtu271ATXmDnAdf/+nue1Pu+ttqxwDrr0ciBwXHE336TSvUB45jhhw8fyZ9/zVEjokPar0xERKErTITtN6lSysB+fWSOFkoYpDRm3AT5rdcvqmnXgCC8dctD0qVNGyBQcWyrc0RnyZQpo77GMXidZk0bS/WqldXMURlds8vAIcOkS6f2Ur5cGf1RwYe+WEx44ZYjj2qmHjNymKRNk0a/N3jQXNylc0d16FDufN9JtVp1pFzZMlKsaBH9EUREFNY5aZWkmhMRTbfGZWALRsFaX/fw8BA3t4Cjg0MD3h9TI6L5GDNNERHR18HT01O/9ulcv35dkidProqxCBEiqEvr6/YWMC4B1yP0OiM+Q12dwvRoZEegijx67LhqiiYiIgqLvviwxWQYmCcZTdFERERh0RcftkRERGEdw5aIiMhkDFsiIiKTMWyJiIhMxrAlIiIyGcOWiIjIZAxbIiIikzFsiYiITMawJSIiMhnDloiIyGQMWyIiIpMxbImIiEzGsCUiIjIZw5aIiMhkDFsiIiKTMWyJiIhMxrAlIiIyGcOWiIjIZAxbIiIikzFsiYiITMawJSIiMhnDloiIyGQMWyIiIpMxbImIiEzm5OXl5YMrPj7qQl0Gtnh7ewe47uHhIW5ubur5n8KTJ0/k6dOn8urVK9E+n76WiChknJ2dxcXFReLEiSNx48bV19KXztPTU7/26Vy/fl2SJ08uTk5OEiFCBHVpfd3eAsYl4HqEXmfEZ6irU5gK29evX6vXev/+vfqfIkaMGBI9enT9XiKi4Hv79q26fPHihdy/f18iRoyoNqZRo0ZV6+nL9SWFbZhpRkbQXrlyRQVsxowZJXHixAxaIvpokSNHVgsq2tSpU6ttDLY12OYQhZYwE7aoaOPHj69ClojIDAhdbGOwrcE2hyi0hImwRR8tmo4ZtEQUGlDlookP2x6i0BAmwhaDoRIlSqTfIiIyl1HhYttDFBrCRNhi1DH7Z4koNEWKFElte4hCQ5gIWxzegz1NIqLQxEMLKbSEmQFSREShiTv4FJoYtkRERCZj2BIREZmMYUtERGQyhi0REZHJGLZEREQmY9gSERGZjGFLRERkMoYtERGRyRi2REREJmPYEhERmYxhS0REZDKGLRERkckYtkRERCZj2BIREZmMYUtERGQyhi0REZHJGLbkkBcvX8qIUWOkRu3vpXeffvLk6VP9HiIiCspXE7YzZv0p4ydOlnfv3ulrzHH16jWpU6+BnHR319fYd+nyFSlSvLSkyZDF33Lg4CH9EWHH4cNHJUuWzLJ8yUKpUb2a7N6zV7/n42zbvkPadegsL1+90tcQEYU/X0XYvnjxQg4dPiIRI0aUSJEi6WvNce36dXn79q0kTpxYXxO44sWLyukTR+XKhTN+S/58efV7P7h+/Yb82KipCmhHLVuxUkaMHiuvX7/W1wTu3v37Uvv7+lKlei35rd8AWbJ0ubifOiWvXvl/vpeXl35N5MmTJ1KzTr0AOwzG0rV7T1UV2/Pw4SOJGTOmRNL+NiG1eMky6dile4DPGRh8pr79B32ynQYiosB8FWF789YtOXnylIwaM85mIIwZN15/pO+G29ZjLJdevfvarJDfayG0d98BFVAFCxcP8LxqNevKo0eP9EcHT9y4ccXZ2VkuXryorwkcwuTfzVslYYIEEjVqVH1t4BInSiTz5/4lM6dPkYrly8mjx49l9Njx8vuEiZIjezZxdz+lvsOq1WukcKHv1HPwuZYtXuBvZwHL3L9mSfz48SRf3jziEsj7X712TRIkiG/6TpAl/J2mz5ilghbfOSiouidPmSaZ3XKGuNXBx8dHtXZ8X79hsHcMiOjLF+7DFhu5LVu3S9GiheXcqeP+AmHvrm2SJXMmyZwpo/5okTq1a/p7jOVyaN8uccuaVbJly2ozHDw8bsuRo0dl3erlAZ772689JUmSRA4Hn7WYMWOoinfX7r0q6J8/fy7rN2yUwUNHqMrd2rVr1+Xy5ctSsEA+fY1j8L0SJUyoPS+/tPqpucyeOU1+6d5VYseOJT17dJOVyxbJoAH9JG6cOPozAtq7b7/82qef9OndS/2eESJ8+GdmXQlPmTZDJk6e4m+nBDs81gLbCerRq7faAXDNnstvHZrnbbUC4N/DihWrZOHipTKwfx9Jnz6dfk9A2GFB90OZ8pXk6dOn8u033+j3BA9CtkWrNupvlSnjh39rRPT1CPdhe/fuPdn07xatUisvkSNH1tf6evTosaowUqVKpa8J3M1bHtrr3bW7wdy1a7faeKdJnVpf4wvhePHiJbWxjhYtmr7WcQjTO3fuStQoUWT5ylVSpkJl+bFxM7l3/4G0bNFMokePrj/SFwJl+46dkjNnjgCfxREImYGDh8rhI0f1NY5Dc/2gIcNlYL8+UrliBXFyctLv8WVZCR89tE+FunVljIC2FthO0PAhg6Rqlcr+muN3bd8s6dKm0Z/tC7/L5i3btEp9koweMVS+K1hAv8c2r/decvv2Hflj4u/SumULcXEJ2Y7SvXsPJHeunPKntuOS1TWLvpaIvibhOmyxcV25arUkTZJYcuXMrq/94MaNG9rGP4663xHHjp+QdOnSyrffBqxwEIaLly63GeoIr4uXLquQtg4fe9B02b5jFylWsqw00IL1j2nTJXKUyFKhfFmpUa2qrFy6SJo0aiAJEybQn/HBM09PVV2iqdf6szhi3j8LVF9qZq3qD47jJ06qIBs2ZIB676C+65PHT8Tb21s1N4eGffsPyIBBQ2TwwH4q5IMSK1ZMVZ1nc3Nz+O9mS5nSJaVN65YSzcVFX0NEX5twHbbY+M+bv1Aaa6H075atMuvPv9TgJUAQnzp9Vtyyukqs2LHVusB4ej5XI2dRDcWOFUtf6wt9gHO1gEqd+lvVR2kNzcuPHz+WDBnS62uChg3z+HGjZcfWTWoEMCrFhj/Wl2ZNGmvV2Va5fOWq/siATpxwl5dawNv6LEF58+aNXLhwUQoWzC/Rrapw3IdwtAWV+8jRYyVZ0qTSqUsP1ZRbqmxF9Ztjx8GWO3fvqmbr2LFiq9ceNHS4VKhcXTJkyebXHIzDjaxhIBcOP0Ifav7visqWrdv0e+yzbNouUrjQR4UnEVFwhduwvf/ggdpQ16pZXfJqoePm6iob/90s//u5gwo/9B0eOHhQihYpLBGdnfVn2Xfq9Gm5cfOmlCpZPMCGeu/efbJJe+02rX6y2dR48NBhrSJOI99+41hzdWBcs2SWShXKy7TpM20OskHwY+BP6VIlVd+ro96/f692QKJEiSIlSxSX1WvWqd/QgP5PjFS+YGOAFoL2546dJUH8+NKkcUPZuH61XD5/WmZO+0N997btOtgcGHZeC/W0aVJLtOjRVAXevm0bmT/vLznjfsyvObh71876o33hOw8dPkrixYsnJ44ckBVahY9KPjDY6ULQ9u/TW/tdSjBoiSjUhduwRaBi8NNPLZqpMEVfKjb+KVOkkEZNW8is2XPUISw4djQo2MAvWrJMSmkhlC6d/wE1CCj0/f6v9U82B9s8ffZMVaJFChUK0LcaEgiKhg1/VO+7dt16dWnpzp07sv/AARW0aH5G9YfqEiEcGByD/MfU6ep62bKlJW+e3DJ4yHC/yStSpUyhfqt9+w+q2wY0j3fq2l1+atZUxo4eoX5z/N74nGhuHzZ0kLx9+07Wb9ikP8OX0Y+dMWMGv8ej2TZO7NiB7vygzxytBPV/+F4FdNKkSaRa1cra3+ilVnXb/o6nTp3WQj2N5MienUFLRJ9FuA3bnDmyqxHAlk2hMWLEkF6/dJNKFcurQzmqV6viUPWH8Fq3foM8e+apmjstYeNdo3pVqVm9ms0N+d69+7Uq+qkU0SrokEDf6djfJ6i+W6NptXrNuuKlBctMLUTRD2kJVdytWx7qEJVRw4fK4gXz1KAqjE62B828uD+13heNsMNOCpp4Ebjoc0aw5cmVS/0WxujnK1evSs9ff5MmjRqqFgTLUccGhGeh7wrKmbPn/B0uhdHUOOwnuKNzvby9bTZlo0q+f/9DJW4J/dzOzhFUfy1nviKizyFc99naggBJlTKl6s8sX65skJXO9Rs3ZdjI0VK3Ti3xuH1bHZ8ZVJVoQN/in3/9Ld/XraUqw+BC5fdj46aqaXfl8sWqWRXNswv/mSPfFfAdSbth079+IYZQXLd+o2TKlFG6d+usqj58V4wAtmzGxQ7DkGEj/Ga5wn137t6TdGnTqtuAnZRuXTvJLQ8P2bFjl1qHyvbmTQ/1WPjvv/+keLGiUl3b2Qjsd8Sxvgj09+8//G43bt5SnyOJg4PTDMmTJVODwjDaGn8HfL6Vq9aokcMIYlvix48vo0cME28fb/m5fSd13DURUWj66sIWlSBGzLb/uU2QExoghIYMG676e3GMacf2P6vjM9FHGxQE38hRYyVaNBepVrVKkKFuDUGCpuuqlSvJ/1r9pCpEwOugv7J2rRqyeuVS6aNV78Yxvzdv3lQBisOBjIod9+HxN7SdBgP6Z6/fuOHX54tm1njx4kiyZEnVbQN+n1o1qsumzVvUY5MnT6aawvE+gFG6P7dpLe+1sJ8ydbrkzFNANVujWRk7GoBm7kuXL6uQjBo1iloHGNmNw5ICO17XFvSJ47jfffsOSBbtvTBJBA6rwWeLEsX+yGu0agzs31cyZkivRnmjKiciCi1fTdhio4+BQ12695QO7doGeegHgrbXb33VKGRUiaj0UA03blBfjbrFoT72IGhHjxkn7qdPS+9ev/gFZXC8e/tOHjx8KBnSp7cb1GjuxRSUhq3bdqgdgzy5c+lrtLCNHEkLNP/v//jJE/W9EMgYnb195y7Jni2bzT5lhBgOkXr9+pX6DdKnSytnz53X7/WFUdpoJsaxrccO7ZMUyZNL919+Vf3Vly5dVhNxFPqugN/3QHCfOOkurq5ZVNWOChfTOjo6OxN2An4fO0ounDkpe3ZsVf2+qN6xUxEYfP4unTuqLgYMlEN/MxFRaPgqwhZNmBj807Z9J+nSsb3UrGG7f9WA5lvM+PP69RsZM3K4X5WI59SqWUOFEmYWstWcjBHLqJxQuWEyBIRTSCAk0fy6d98+v8OVAoNg26NV3JUqVVBzDRsQyLiN/lED+nXjaBVlosSJVB/may38SpYopnZIEMIYqY0FJ1X4Z8FCNfAL3xlVcoH8ebVgdvPXbxpBew800WInAzNkNfjxB+11PGXyH1Olddv2qk87n8V8zw8fPVSzWyH0wNvbx+GmeUv4DKi6Md0mjjm27J+3xzJwf+7QKdDAtfw9nj59pj4jms7Vbe33tncYlDU08xu/6ctXL9XfEzNS4bbRukBE4Vu4Dlts1LAxrlS1huzQqre/Z8+wO5AHEMoYOFWz7g+SK2cOmTR+rOr3tIT+wkYNfpRVa9bKEYsZljDgB8+tVLWmquxmzZgaotmbDAjJurVrys5de6Rhk+ZqOkL0HxsbbSyWA45wbO1DrRrHHMbWcufKpQ7BOX/+gvZ6u2XqtBnSUAtEBI9RJWKgEn6v8ZMmS/lK1SR3/kJSUfvdELCdtR0UY3IMzNSEAU+Wv2GJYkWlYP780rR5KzWAC/NCP378RF68eKl2OFo0a+JvhDGqXVS0Rj82mpexU4J+WAR2YPCd8TssXLxEfmjQWIYOH6kO6QnOMcX43hg8h1YAzHNtrw8XO1t9+g9Uv0WpchVVc/tPrduq281atJJnWuA64uix4+o5WPoPHCIbNm6SQsVKqttr1q7TH0VE4ZmTl5eXOnbEOIQEl4Et2Ju3vu7h4SFubm7q+SHh7u7+Uc+3B8eJ9uk3UB1bib7PoGZTwuOHDBspNbVKLLCJDxCsEyb9oV4za1ZXtQ7zFGNwUru2/1OVYGCVc3AgVFeuXqs20AhL45hSNB//8/dsvybjJcuWyxWtEkUwWgYbIMDGT5gkc+b+o6aM7Nmj62ed2AHzHN+9d0/19xqfARX27L/+lhUrV/sLP4T70EED/I5fRl9wl26/qD7Y7+vUUt0BIZ1vGn/vcb9PVIdt4ZAw+vqYte2h0IEWtE/t+vXrklwrmLBtQlGBS+vr9hYwLgHXI/Q6Iz5DXZ3CddgSEQWG254v25cUtl/NACkiIqLPhWFLRERkMoYtERGRyRi2REREJmPYEhERmYxhS0REZDKGLRERkckYtkRERCZj2FrBJB04YQFO2/Y1wPfcsnWb+t5ERGQOhq0FBM7mLdvURP044fjXACcuwInX16xb/0kD99LlK9K6TTt1YobQhKkgf+s3QJ1G0B58T5wsf/7CRfL69ZdzIgCcXaldh85qDm8i+rIwbC3gXLfYoDVt0ijIeZTDC8yj3LhRA3V+WHx/RyDQsAQG57z10f6LH8hp7/AaOHFBSJYixUurQLclZowY/k49iEDF2Xpwpp6N/25WZ3Rq066jmn7t7dsPJ3PAKf5q1qmn5qMOCTwPzw/sVIE4y0/HLt2D/P1sefjwkTqDUySL70ZEXwaGrQ7nr12wcLE0b9Y4wKnaMPl97z791InRsQwcPFRNnG8YMWqMzUAwFnsbX5wlqEev3gFOoYfXxvvZChOcNxZBgc+Bk7UPHDJMbYQ/Br5vq5YtZOGiJfLgwUN9bcjhVHQ4u1C6tOnUSRAQ4lOnz5TGzX6SwxZnSqpTu6ZcuXDG5rJp/Rr5sX49OX3iqM37ce7cdGnT+IWX8Vvj95wybYbfbdx38dIlqVC5utRv0ETOnTsvPbp2ljUrl8r3dWpLrFgfTkcY1uE0iQkSxFdnYiKiLwvDVrd+wyZ1EnLr0+LhzDAdO3cTnHN13arlsmj+33Lu/AXp2es3dfYfaPu/VnLkwJ4Ay8D+fdWp32ydag9V1v4DB6Vi+fJ+VTSaN0+6u6vTt+3YuVuts3T6zFlp9b+fJV68uFoYrZa//5qlmkM7dO6qdhY+Bk53lytXDtm46V99TfBY7nBkyOwmC7Tg3rlrl4wYOUbOaJ87d66c6lR+uPyUcDagcaNHyP49O2TH1k1+YbxW+1shsMeOGq49Jpo6E9O8ObOkQ7u2kiFDelXVfgzrkMeCU+ahCwKn/sNt7AxVq1lX7WiEhFEpG6+PnYiJk6f43cYSkgqZiEIfw1aDE4RjUFTxYkX9nbEBNm3arDbM3bt1ltSpvxW3rFmlf9/f5NyFC3L02An1GJxYPW7cuP4WJ+05m/7drKoznAPXGs4/C9mz+55xBBvWTl17qA01zvVq67RxOCcvdgi6d+msTgmX1TWL9OndS+7evaf6XT8Gvnf+fHll99596vcIru5atYiQu3z+tHTp1EEa1P9Bli9dJKNGDJXmzZqoUwHGiR07wO8LtpqTy1aoLPP+WSCu2XP5W2+v+RifGUGEShqV9fIVK1VTtq33Cwz+Vo50IRghb4Q7Fuxg4XzC8+f+pW4fO7xfVi5bJK1+aq4/6wNUqEHBv6Nlixeo1zp6aJ86naBx21jQOkBEYR/DVnPv3j21gU6ePJm+xteLFy9k1549UrpUSRUUhuTJkmkb1eyyd98+u4OKdu3eowbp4Lyx1tBsvG7DBilbupTf6z7WwjZypEiy8J+5qiKOESO6Wm8tmouLRIz0oc8uSpTIEi2aizhbncM2JJIl1b6/9n3snUzdEai+16xdL7VqVgtwXt3AtG7Zwl+IbFy7SurXq+uvGRlhhgrVFlTmJYsXk/fv3qtqH+f9zaftPATH48ePVRUcIULIfkvsYDk7B96fipPf432iWXVVBOXJ4yfqlJbx49vvAyeisIthq0HQ4WTkUSJH0df4wvqrV69Jxgzp9TW+UNUkS5pE7t1/IK9fv9HXfoAmYvT/VihX1l9IG65cvSoXL16SIkUK62tE0qZJIyOGDVbVqr1qrFzZ0nL23HlZumy5Cmw0Y/85e472+TL4ncT+Y+B7xYsXT+7fv6+vCR5UldNnzJJUqVLIwMHDVDPq8hWrHBrlbNnPiqVcparyz4JF/ipbNNPid7OEKhfVbqasOeR/P3eQnHkLqKoY1bJbjjyqGRZN7Hgenm/5HlgsK+X//nuhLkMK/36sd9iseXm9V4O1guvO3buqrzZ2rNjy5s0bGTR0uOqHzpAlm993QVM+EYVNDFvN7dt3JG6c2BIpsv+BJ2/evJW3WiViq1kx9bffyo0bN7SwDXgYBpqIX2rBU6ZMKX3NBwieLVu3qwotaZLE+lrHIJDHjBomk6dMV+GSPXd+VUn26NYlwKCukMDGPI72O4RkwBVaBhC0e/fvlzKlSsnMaX9oVfrfKjBv3LyldgzWb9gozVv+T86dP68/6wPryhZNsT81b6qapQOrbDFICoOljMcsmj9X/pg03u82ml3jx4+vnofnYx1e23g/Y6BVSFg3f2PHYNXqNX59tsbyKfpV0U2QNk1qiRY9mvr32L5tG5k/7y85437M77uiKZ+IwiaGbRDixomjBVAc/VbQjCZiND0nSphQX/sB+ma379jlb2CUo1Cdde76i2pexYCgLRvXSaqUKaV9py5qIJcBwTdLq3hRWX5fv6EadGVUlwjnJs1bqur7U8Frr9AqWFSxkyf8LrVr1VB9zqjy4sWLI+07dpF83xWVP7TqtVDBAqp6dgSaxoPb54qWCFuH7uCzRI3qot/6NKxHU6PJu2qVympHw3L9x/aroukZf3v016NpHr8JRlGj1SQ4TfVE9PkwbDXJkiWVJ0+fyTuLYy4NqG7RbGcL+ufQT2cJTcQ41KfQdwVtBoX7qTOqudYYGOUoNNGO+X2CFC1SSP7XuqUKcgzYwsAthDaqJyNQ9+zZJ+vWb5AF8+ZIyxbNpGv3nrJk6XJ1vCk+W/p06VSzuTVs1J9qv4Mjg3cs4Xm379yRoYMHSN48udU6TGbR7ZdfZdv2neozb9+yUVYuXSTNmja2uRNi3YyM6tB6na1mZOsRuzj0p1fvvn63P0fT6sceimUNrQI47CdTxoz6GiL60jBsNfHixlX9aG/eBgxVbOhs9bFhEBGqJet+3q3bdqg+3vTp0uprPrA1MMpR9+/dl7PnzknhQt/5q2bwOtmzuakQff7c93OePnNGSpYoriqhUiVLyKTx42TJsuWSJVsuWbh4idStU8tmRYTDWTB4J1GiRPoax6hmzZ/byHda1YqqGk3HCEsc9lSieFH1mRNrr2mvSkXld/LoQZk1fYpcOOuumo7/16ql9rnH+qsQsVg3+1qO2N22eaMasYs+7Ll/zVLr0LSKPluv914SMWLQVaAagGbncbc8PGTE6LE2K2eIEMHJoUoTvxdGnNszd958NZOZAc3w2OFLEsxuByIKOxi2msSJE6uNpIfHbX2NL6N6RFVhCaGEDWCG9OlUlWrA6OUTJ09Kgfz51eFA1mwNjHKUl7e3Cgx78Jm8fbzV9cYNf5SmjRup64D+SvRTHj98QB1/amtHAG7f0b6/Fog4rCgkjObkZctXyOwZ09SkERjd6wi0EKxdp1XjWlAj1LBjkSVLFv3eoKHyn/fPfBXuCO+NmzbL9h071QjeGzduOjwZBPqs7T0Of7uD2k6N0YKAnbDfJ0yS/N8VVVV0jjwF5N8tW1VTvb1ABoxEttWyAMYIeMvnHzt+Qh2rjS4NIvoyMWw16P9C9YWNs7EhhZgxY6hjT7dv36kqXMPlK1fE3f2UqqIsXbt+Q86cOSc5c2TX13yA18XAqNy5cgU5YtUWhEWqVCnV8cCoHg2Y8engocPq+E5jA46gt9wJABwrjO9pr/LC50N1XPi7giGeVQn9xgsXL5WePbrZPUTHHgzw6vtbLzl56pRUrFJDTX6Bw3kcgRm3+g8YrI6TxmhdTNfYrUtH2bx1m+zdt1+OHjuufvePgVaJDZv+1cK8mKqmcXvYiFFq+sStmzeoKvrIwb1SvWoV9TtWrl5LNd3jccGBCVNu3vTwO2wJO1EnTrqLq2sWVQ2jwkW3AN7DHvwtt27bLsVLl5NCxUqq/nvLfzNEFPoYtjqceOC8tqFD9WlAs2f5cmXk4qXLMnT4KDX4xl0Lg/4Dh0iVyhXFzS2r/khfFy5clNixY9ls7kMQbdaqHutmYEehubjhjz/IoiXLpN+AQap6wgb3l19/U4FbV6vmQvK6BlTqhw8ftTmC2lFoxsYOSprU36rbCHxM/IAdlqAgIG7e8lCtCzj8afHSZTLpj6lqqkzLHSBr6Bv+qXVb1WRtufODHY9B/fuqwW347bNkzqTfYx+Obb6lfQbrif7x/pjRy939tFSuVFH9u0AFevvOXSlapLC/keCoSJs1aaQq+3nzF0jvvv39dUOgnx/HX9s6vOrZM0+ZNmOmVNX+bRk7Gg8fPZTLly/77cBhJrOggvP8hQtqDug1K5bKjq3/qh1FTM5CRJ8Pw1aHw0Mw29PMWX+pJkkDDreZNmWi6svEsZ+t27ZXwYxDR6zDDXPworkvVqxY+poPMGUhmg+DOzDKUrmyZdSUgze1YKxR+3t1Vh30hf45c2qwK0lL+L5Tp82QH+rVVa8XUokTJVRBtGrNWodmoUKI4XfFIUH1fmwkbdp1kJ9aNNO+45+yfPEC1beJwU/FS5XzG+S1Z+8+uX7jpgo1BF7CBAllsBaqtWpWV+8N/2nrAd/rrzlzpVLF8v5m8cJhWbag2Rp98Tt37vILNIza/mf+QhkyfIT07tVDvkmVUq3HyGbsWO3Zu1cNPENzNSYywU6Qm5ur+nvMmDpZC9Bn2s7RYL9/U9gZ+U7bKcA81NiRALwX5rzu3K2HqpobNvzR77tc0nb0UNEa4Rs1ahTVDYBWGMt/p5bu3XsgebRKHjsc+DdaIH8+OXX6tH4vEX0OTl5eXqpsMKoHXAa2YKNifd3Dw0PbwIQ8RNzd3T/q+Z8KvgsGpqAywCje4B6aYw+aEnHaNzdXV2mgVadhCTb006bPlJTaxrxyxQp+G/nAGMeN2jqkBZXpn3P+lh07dqnmdmv1f/hefuv1iwoQnKzgt74DVDVdqUJ51VJgvQODz4fXPHTosJzQ/p2cOnVaHReN6nP2zGkB5lrGZ0MfOwZGoY91nRbkLVs099esbvkYa3j9seMnquZnNNmi/xrV7A/16kiK5Mn1R/nC58KAKYQzZqzCxCJdO3VQs4YZvyOqat8TXDTxq4ARzrO1nYD5CxapcMdvgcq8UYP66rmW/+7wWe/euyc/t2nt95poNp/919+yYuVqf7N94bCjoYMGaDsj1+VP7X78zlFdXGTS5ClqBHrFCuX0R5IhrGx7KGQ8tf/vPrXr169Lcu3/dfz/hu43XFpft7eAcQm4HqHXGfEZ6urEsLWC74Pq6dGjx1KtamV97cfBJA44HGXs6JF+lVFYgZPHo/kUo5ct/5EYUEFiIgpMsG9p+JBBH338KJkD/4ZxqsgBg4eqw7KaN20ijbRq+WO6GcIrhu2XjWEbTPwHT0SfA7c9X7YvKWzZZ0tERGQyhi0REZHJGLZEREQmY9gSERGZjGFLRERkMoYtERGRyRi2REREJmPYEhERmYxhS0REZDKGLRERkckYtkRERCZj2BIREZmMYUtERGQyhi0REZHJGLZEREQmY9gSERGZjGFLRERksjARts7OzvLixQv9FhGR+bDNwbaHKDSEibB1cXGRt2/f6reIiMyHbQ62PUShIUyEbZw4ceT+/fv6LSIi8z158kRte4hCQ5gI27hx40rEiBHl3r17+hoiIvNgW+Pj46O2PUShIcwMkEqePLk8f/6cgUtEpsI25tGjR2qbQxRawkzYRo0aVVKkSCH//fefnD9/XjXxcNAUEX0K6J9FyGLbgm1MmjRp1DaHKLQ4eXl5+eAKmlSMy8AWb2/vANc9PDzEzc1NPf9TQNA+ffpUXr16Jdrn09cSEYUMRh1jMBT6aNl0HH54enrq1z6d69evq1YPJycniRAhgrq0vm5vAeMScD1CrzPiM9TVKUyGLRERUVC+pLANM83IRERE4RXDloiIyGQMWyIiIpMxbImIiEzGsCUiIjIZw5aIiMhkDFsiIiKTMWyJiIhMFmbC1sPjtrRp11EyZMkmFSpXl527dqsJM2DxkmWSJkOWAEuR4qXl0uUr6jGWduzcLb379JN3797pa0RN0dZvwGA5cPCQvsYX3uPgocNStWYd9d6t27STa9eu6/cG7t79+9KtR68An+Hlq1cyeco0yZmngFqGjRglL16+1O+1D1PK9ejVW0aMGqOvETVxyIaNm9Tnw3cuVbaiLFuxUt5zZi0ioi9GmAhbTArep/9AqVa1spx1PyaDBvSRkaPHyvkLF9T9dWrXlCsXzvhbZk77QwoX+k5SpUyhHmNAYCGcypQuLZEiRVLBN++fBVKmQhVZvHSp/qgP8B4DBw+Vvr17qvcuWaK4+iz4TPZgOsnxEydL+YpV5dCRI/paXwjB0WPGybNnz2TPrm2ybctGuf/ggcycNTvIgDx85KisW79Rv+XL8/lzFf5TJ02QS+dOyaQJY2X2nLmyZ88+/RFERBTWhYmwRWWZIEF8KVGsqJrDNFfOnFK0SBHZum2H/gj/nmpBNm/+Qqldq4ZEjhxZX+vrzt178lKrIrNn950+8syZs+J++rTMnjFVBbA1d/fTkid3Lu3x2dV7V6pYXqK5uMjVQKpbVM6omhfNnytpUqfW1/pCMJ6/cFGaNmmkXidO7NjSpnUr9R0fPnyoPyogfKfFS5dJzerV9DW+8PzWrX6SpEmTqOnCMmXMKDWqVdUq9IP6I4iIKKz77GGLZtzjJ05KzhzZ/YIT80nmyZ1TLly8JK9evVbrLB07dlwSJkggblld9TUf7Nq1WzJkSC+xY8VStxGkwwYPlFSpUqnb1nAeXWsRI0W0ud5QvVoV6dKpg9pBsIaKGGEfxWInIH68uPL+/Xu5q+0IoLodPnK0qoyNShe/wYIFi6Rg/vyS1TWLWhcYFxeerYSI6Evy2cP29es3cu/+A0mcKJG+xle0aNFUP+6bt2/0Nb7Q97l0+QopX65sgKrW0/O57N67T0qVLO5vMujAFMifT4X64cNH1BmG1q7bIC5RXSR9+nT6I4InRowYqvn6zdu3+hpR19Fn/OaN/+9i2Lf/gFy5ek0qVaqgr7EP5/xFZZ09ezZ9DRERhXVhZoAUwtWal9d78fH21m/5OnfuvDrPrdFMbOnipUuSIH68AE27gUmSJLH8UK+uNG/ZWtJndpOx4ydKo4b1JbqNz+MIvHfSpEnlz9lzVNMwwvHvufPlwQPfJuSIzs7So1sXaf9zG3X9ohb0Eyb9IT81bxrke6I/evrMP9Xj0F9NRERfhjATtragSnR2/tCci+ZW9OOiPxd9mZbQJLth47+SX6tUrSvewCxfuUqWr1glmzesk8vnT8uMqZOl56995NjxE/ojggdNvL/16qEGRRUsXFzKV64m6dOllVy5ckqUKFH0R/nCY4YMHyHt2v4vyEr6ydOn0qt3X1W99+vza4h3BoiIKPR99rCNFDmSxI0TW27cuKmv8YV+z0QJE2oB9SE4MQrY/dQpyZc3j77mAww+uuXhYfM+exBcK1auluZNG6sBSGh6ds2SWWrVrCGrVq8JcvSwPfHjx5exo0ao0c17dmyVAgXyibe3l6qiLV29ek01CTdo3MzvcCYc+jNl2gypWaee+r5w5epVafNzBylSuJD06d1T7YQQEdGX47OHLZpSs2TOLGfOnvU3YOjM2XOSI3s2f9XgxUuXVSCmTOH/cB84dPiIasJFQDvK28dbDcCy1Zf65s3bAE3YIYXPliplKkmQIIG+xlf+fHkDHNI0fMggad2yhSxbvEDixo2rmqHHjpsgrbR1VatUUiOSiYjoyxImttz5tNDBiOQtW7epQUpHjx1Tk0+UKllCf4SvI0ePSaaMGSRmTP+VHQZNbd68VUqWKObwwCjAiOVS2nMmT5mughyH8yAY/5m/UPWJYqBTSGzbvkNNeIGdB1z/6+95Uu/72mrHAuusRyMH5vKVq+Kj/Zc3d65gfTciIgo7wkTYfpMqpQzs10fmaKGEQUpjtErut16/qKZdA4Lw1i0PSZc2bYDQwbGtzhGdJVOmjPoax+B1mjVtLNWrVlYzR2V0zS4DhwyTLp3aS/lyZfRHBR/6YjHhhVuOPKqZeszIYZI2TRr93uBB1Y2JLtxy5vVrasZib/YsIiIKe5y0SlLNiYimW+MysAXTB1pf9/DwEDe3gKODQwPeH1MjovkYM00REdHXwdPTU7/26Vy/fl2SJ0+uijF02+HS+rq9BYxLwPUIvc6Iz1BXpy++AxBV5NFjx1VTNBERUVj0xYctJsPAPMloiiYiIgqLOLSViIjIZAxbIiIikzFsiYiITMawJSIiMhnDloiIyGQMWyIiIpMxbImIiEzGsCUiIjIZw5aIiMhkDFsiIiKTMWyJiIhMxrAlIiIyGcOWiIjIZAxbIiIikzFsiYiITMawJSIiMhnDloiIyGQMWyIiIpMxbImIiEzGsCUiIjIZw5aIiMhkDFsiIiKTMWyJiIhM5uTl5eWDKz4+6kJdBrZ4e3sHuO7h4SFubm7q+fTle/LkiTx9+lRevXol2r8PfS0RUcg4OzuLi4uLxIkTR+LGjauv/Xienp76tU/n+vXrkjx5cnFycpIIESKoS+vr9hYwLgHXI/Q6Iz5DXZ0YtuTn9evX6m/5/v179T9FjBgxJHr06Pq9RETB9/btW3X54sULuX//vkSMGFGFWdSoUdX6j/ElhS2bkUlB0F65ckUFbMaMGSVx4sQMWiL6aJEjR1YLKtrUqVOrbQy2NdjmfE0YtqSgoo0fP74KWSIiMyB0sY3BtgbbnK8Jw5ZUHy2ajhm0RBQaUOWiiRXbnq8Fw5bUYKhEiRLpt4iIzGVUuNj2fC0YtqRGHbN/lohCU6RIkdS252vBsCV1eA/2NImIQtPXdGghw5aIiELd17aDz7AlIiIyGcOWiIjIZAxbIiIikzFsiYiITMawJSIiMhnDloiIyGQMWyIiIpMxbImIiEzGsCUiIjIZw5aIiMhkDFsiIiKTMWyJiIhMxrAlIiIyGcOWiIjIZAxbIiIikzFsiYiITMawJSIiMhnDligIr169lk5du8uevfv0NSJv376Vrdu2i6fnc1m9dp2MGjNO3r9/r+7bt/+AeHjcVtet3bx1S5q3/J9cvnJFX+Pr+ImT0qNXb/nvv//0NUHD5+r5ax/Z+O9mfU3wnD5zVn5s1FQePHior3HMkydP1PNOnT6jr/GF9U2at5SLFy/pa4jIwLClLwI24NjAnz13Xl/zcRYvWSY169RTARGUqFGjSKKECSVixIj6Gt+g2rlrj0SKFEnd5+3tre5HcC1eukx8tP9sQajmzZ1LUn/7rdzy8JDXr1+r9TFixJDIkSOLs7Pve7x89UomT5kmf/71t7z38lLrrD3zfCZXrl6VFMmT62uCJ0qUKJImTWr13kF59OiRbNi4ye+z4LlRo0ZV1y1FiBBBnLQluPD3SJMhiyxfsUpfQxS+MGzJNMYGNLAFj3EEgunZs2cSN24cfY3I3n37pXeffnLj5k19jTmcnJy0EHRW1xGOO3ftln/mL5SGDX6Qd+/eqfU+Pj5y7PgJWbRkqZQuWVIF7927d9V9BgTxtu07pFrVKuo1L12+IjNmzfYLMB8tsO/fvy9Tp8+U2nXrS1Qt0GrXrC4R9fe2dvbsOXWJsHQ/dUqWLF0uXbv3lPETJ6v1gM/Xq3dfm7992QqVZd4/C8Q1ey6b948YNUZ/FZGYMWPKGe39Jk76Q97pFTwCGDssxuNz5y8k23fsVK9r+Trde/4qb968Uc+xJ1WqlOoyWbKk6pIovGHYkmnq1K4pVy6csbmcPnFUqlaprD8yaKho06VLJ7FjxVa3EW7x48WTi5cuS53vf1RBg6Zda0+1gEYgf6qKOKJWyaI6TZAgvqpE0byMpmGE69Vr11QTct48uWX6zD9l95596nMiTPE5Vq1eI1EiR1HN0b9PmCTzFyxUwbppk28z8G5t/dDhI8U1S2ZZtni+NGvaWIWc4cDBQ/5CDM3Rjx8/kf4DB8vWbTskTpw40qVTB2nzv1b6M0RV3nHixJb5c/8K8Dc4cmCPLF4wV86dOh7gPjzeEr5rq5Yt1OsZzc7x48fXPucCv+fg9YoXKyqb1q/x91ojhg5WlTDR14xhS2EKqlUEzouXL/U1Ii9evJATJ09K9mxu4uLi23SJyjBjxgzy9+yZ0v7nNvJbvwHSpdsvAZqFHz58pEIMrxFc6BPt2KW7CrYp02bIDw0aS916P0q97+uoJtT/tW0vjRv+KDmyZ1dhWr5cWSlTuqQMGjpcImuhVL16VfU579y5I63btFOBnzJlCi2k4kmlCuVlzMjhsmblMjl0+LC8fPlCihQuJGNHj5TChb7za6LF77F+w0Z1PX++vH4BtnjBPMmdK5fMnTNLZk2fIh3atZXSpUpI0qRJ/FXCCHsvO83Qj7Sgnv3XXK1aD7zqNESPFk3aakGO4H3+3PG+ZSJi2FIYg77Mc+cvSK9f+8iTp0/VOlSOV69ek3x586jblrDh/7F+PVn4zxwVvjFjxdLv8XXx4kWJET26pEgR/H5NBPu40SNk765tkiVzJhnQ9zdVyaGPNmeO7Fq4lVSV3vv37ySCk+//SqVKltDC7b2UK1tGLly4qNalTJFCFsybI6NGDJU2rVtKieLFJH36dBJd+1zfpEopfX/7VaJFiy7v370Xb+8PwYgm61279wQIw+fPn8v0GbOkWpVKkjhRIn2tbXjuvfsPtB2HV347DsaC5t616zdIjjz5/a231eyL5uj9Bw6qnQY0S79+/Uq/59NB64DRXE8U3jBsKUxBZTZuzEh1vWPnbnL/wQPZt/+gpE2bVr799hu13pZsbm7yc5vW/qo6NCtv37lLChYoIAkSJNDXfoDm4MbNW8rCxUu0QLqvqkBbEJrPnnmqyhQVNwZrrVm3XmpUr6b6KNGXicoZI4kxwAdBi88xTQtEVLxgVMnFSpaVGrW/V0uZ8pX9BmnFjRNb7VzkzFvQL/TwWLxf0SKF1GsAPuP6DZvkxs1bcvjoMXHLmVd+/a2fv5YAS8YOA5p3cWnZvIvmXuyooEnfcj2afYsWKSzdu3ZWr4HX7ty1h6xYtVo6d2wvUyePl4TaDgegX9f4vLb6bB0dhAbYcUBTOFF4xLClMCeutsEdMniAJNQC8seGTWXO3HlSqGAB1YwZHMaI4fLlfMPPGqroKpUqyrLlK6Vg4eJS78dGsmXrNn99vwg3DGQqkD+fGpyFEbkYgOTt5S2bN2+RTBkzirv7KYkYKaLMnDVb/t2yVcZPmCxHjh2TFMmTyWmLw2NixowhM6dPkeVLFqpl0fy/JVWqVOo+9H9OmTReLpw56Rd6B/buVNU07jOgTxjN7Pnz5ZGePbrK/j07VMjjMCT0DWOQ1i+//ibz5i/Un/HBmHHj/UIQi70BUtaD1vC7j9V2gIYNHigZMqRXTeMGBPLMaX/IquVL/AW2saAlIG7cuPqj7cN3RD84UXjFsKUwCRv4fn1+lcyZMqpgK1gwv36PY1BJzl+wSPVzZsmcWV/rX+zYsdRoXzTxbt+yUXLnyqlG85arVNXvmFpU1mi2RcWN17pz566M1SpENAk3b9ZEq26rqmbgJIkTS5nSpWTVssXSv29viRUzlnTs0E6rqh373BhN3LlbD3Xcrj2oqPv2H6QGQP3a6xdVCeJ3ypEjuwrSYiXLqGZejE52y5olQKWOqtQyCDeuXSX169UNUNliYJs1y50VhCf6idOlTaNuHzp8xG9kNBHZxrClMAuBibBDn+0fU6bbbSq1hpBZu2697Nm3T1pogWgMqrIHlVqqlClVlbZz279Sp1ZNv8NbDh46LBnSp1MDlpIkSaL6ajNkyeavEsSCarfuDw3U9QaNm0mX7r9IhsxuKogMqEDbdejs14zcqGkLv8kvXFyiqT5c9AED+mtRYWLgF5qwAYc/1apRTZo2aaTCzzgWd/yESapfePqUybJn1zbp3bOHala3rEBtefzkiXh7+0jEiIH3k1oOFLO1YPAYJuSwdR8WR5uS0V/rHIJjdIm+BPyXTWESmkTnzV8gXlpVO3vmNNU8ugSTRdjpVzXg/s1btsnwUaOlU/t26jCa4MChNhjEVLxoEdXfunvPXsmlVbyA8Cr0XUFV/bVu2cLf4TSrVyyVJo0ayPnTJ+TEkQOyctkiuXz+tKqGDag4J/w+xq8Zec6fMyR58mT6vdpn9/YWj9u3ZcrU6VK1Rm3Vj9xZq45RgQMGVrVu9ZMK2pPu7lKrzg9y7959dYhQVtcsahCXdXN5YEGJ0dULFi2WjK7Zbd5vhKTR72t8VyyXzp2SKZMnqL5gVPP47ksXzfe7H83bPzVvKof27XK4KTlWrFjqMCWi8IhhS2HSwYOHZOmyFdKpw89qsE7bNq1k4uQpqs/SHvS1YrIJNMd2+Lmt36E3IYUqs0L5cmr0sSWMzH337r2avQnVJ973229SqcobE2zM/PMv2bJ1u3hp4WkpsMoW9uzbLyNHj1GjqtEHigFftkIKzckYEYzA7/tbL9WEbY+toMRy9NA+dZgSRnh37dxRhaf1Y2yFJL47Bp3V/r6+bN68VSaOHytZs7rKD9/XlVna90ZLxLVr16VHz1/Vjo4jIQtokkbTtKOPJ/rSMGwpzEHTK+b8xbGjRp9n5YoVpFyZ0jLpj6lq5iJLmCoRlW/DJs1Vcy7CBaNsbQ2KCg70h6LCtQ7sR48fy6vXr9TnQVPswCHD1GErbq6u0qFTV9XH+1OLZiqELQdbBVXZ4vjacaNHqQrW1lSIgIp/kRbw2AmoWqWSmh4xuPCZEIyZM2WSqZMnqsOqsJNizGRlDetx2A8OCapUtYYanY3DnjCgKZqLi3oMDmX6oV5dNcHIgMFDpW/vX9WkJSH5fEThEf9PoDADTcBotm2vBVatmtX9VaY4nvanFs1VlYu+TcBgJYRGpao1pX7DJqopde2q5epY14+paG1BRYdjT/EZd+7cLZkyZJB48eKpplLM2oTPsn7jJhVk6FNFUK9du142bvpXf4WQOXrsuDo0yfDu7Tt58PCh5Mmdy+87YkCTcZhOYPDZUXW279hFVdnYIUATda+e3dVhUD+366jut26qx04L1jVp1FDWrVkpLbXnYaS4AU3VeL6np6eMHjlMPLWdDQwwQ5+yo4ypPR2dvpPoS8OwJdMYG1BbCw43wfSFBoTUzD9nS9v2naRd2/+pEbfWlSkmgGj1U3O/qu/2nTtawP0rTRo3kL07t8pvv/Y05fARVHZPnz5VAYVmbJxlp0L5smo9JuAYMnSE/KCFfd3atdQI5ZGjx6l5kc+dx4xRvnP+2oIJJywnj7h79556HwMGSR04eFCr5B/ra3ybhdE3i0oUTdCo6gODkHysVeL4zC1atVFTPNbTKtDevX5ROwSgDrUa1F9Kly4pPzZuqg6BQsBfv3FT7WQAWhgwMvzli5dq5PSly5dVMz9Gbjds0kz7Xfar6TQxohsV+zMteMuUr6Sq/iNHj/m9DtHXysnLy0vtxhp7s7gMbMH/3NbXPTw8xM3NTT2fvjzu7u6f/e+Hfsgxv0+Qtq1bqj5As2FHYP7CReoY0aD6CVG59ezdRwvTmloYPpNMmTJImtSp1QQO6EeuV7eOVKxYXjWpIoBXrFwlI0eNlZIlikuf3r1UQOI1hgwfIY0bNlCTcwwfMVrm/jNfGtT/Qbp16agGgk2YNFkdroSgAlSP5cqVkQ4/t/F3rC1CGEG3as1aOel+KsBsTxm1qhvH7H7zTSo1j3HXHj0lceJEUqtGdcmtVcSBNa/jtQ8fOSoLFy2RC5cuyaTx4/wO8cH/61OmTZfzFy5J4e8KSt68eSRZ0iR+I6itoTkdLRWYt7lL5w6B9i3T1+ljtz1oTfnUrl+/LsmTJ1ctR+osVtql9XV7CxiXgOsRep0Rn6GuTgxbChNhS0Rfn68pbNmMTEREZDKGLRERkckYtkRERCZj2BIREZmMYUtERGQyhi0REZHJGLZEREQmY9gSERGZjGFLRERkMoYtERGRyRi2REREJmPYEhERmYxhS0REZDKGLRERkckYtkRERCZj2BIREZmMYUtERGQyhi0REZHJGLZEREQmY9iSODs7y4sXL/RbRETmwzYH256vBcOWxMXFRd6+favfIiIyH7Y52PZ8LRi2JHHixJH79+/rt4iIzPfkyRO17flaMGxJ4saNKxEjRpR79+7pa4iIzINtjY+Pj9r2fC0YtqQkT55cnj9/zsAlIlNhG/Po0SO1zfmaMGxJiRo1qqRIkUL+++8/OX/+vGri4aApIvoU0D+LkMW2BduYNGnSqG3O18TJy8vLB1dQ0huXgS3e3t4Brnt4eIibm5t6Pn35ELRPnz6VV69eifbvQ19LRBQyGHWMwVDoo/2UTceenp76tU/n+vXrqup2cnKSCBEiqEvr6/YWMC4B1yP0OiM+Q12dGLZERPRF+pLCls3IREREJmPYEhERmYxhS0REZDKGLRERkckYtkRERCZj2BIREZmMYUtERGQyhi0REZHJGLZERJ+Ah8dtadOuo2TIkk0qVK4uO3ftVpP+wOIlyyRNhiwBliLFS8uly1fUYyzt2LlbevfpJ+/evdPXiJrmsN+AwXLg4CF9jS+8x8FDh6VqzTrqvVu3aSfXrl3X7w3cvfv3pVuPXgE+w8tXr2TylGmSM08BtQwbMUpevHyp32sfpmXs0au3jBg1Rl8j8t7LS1asXC2lylZU3xmf0/K3+VowbImIPhIm1u/Tf6BUq1pZzrofk0ED+sjI0WPl/IUL6v46tWvKlQtn/C0zp/0hhQt9J6lSplCPMSCwNmzcJGVKl5ZIkSKp4Jv3zwIpU6GKLF66VH/UB3iPgYOHSt/ePdV7lyxRXH0WfCZ7MCXr+ImTpXzFqnLoyBF9rS+E4+gx4+TZs2eyZ9c22bZlo9x/8EBmzpqt7gvM4SNHZd36jfotX17v30vkyJFl6eL5cuncKencsb30HzjE77f5WjBsiYg+EirLBAniS4liRdU8wLly5pSiRYrI1m079Ef491QLsnnzF0rtWjVUEFm6c/eevNSqyOzZfafAPXPmrLifPi2zZ0xVAWzN3f205MmdS3t8dvXelSqWl2guLnI1kOoWlTOq5kXz50qa1Kn1tb5QFZ+/cFGaNmmkXidO7NjSpnUr9R0fPnyoPyogfKfFS5dJzerV9DW+okSJIhUrlFOvgykP8+fNK25uWeXq1Wv6I74ODFsioo+A5tDjJ05KzhzZ/YITc+LmyZ1TLly8JK9evVbrLB07dlwSJkggblld9TUf7Nq1WzJkSC+xY8VStxGkwwYPlFSpUqnb1nAuamsRI0W0ud5QvVoV6dKpg9pBsIaKGGEfxWInIH68uPJeq1DvajsCqG6HjxytKmOj0sVvsGDBIimYP79kdc2i1tnjg/+0xydMmFBf83Vg2BIRfYTXr9/IvfsPJHGiRPoaX9GiRVP9uG/evtHX+ELf59LlK6R8ubIBqlpPz+eye+8+KVWyuL8J7QNTIH8+FeqHDx9RZ+lau26DuER1kfTp0+mPCJ4YMWKo5us3b9/qa0RdR5/xmzf+v4th3/4DckWrVCtVqqCvse3169eyctVqcXGJKpkzZ9LXfh0YtkREnwDC1ZqX13vx8fbWb/k6d+68Ole00Uxs6eKlS5IgfrwATbuBSZIksfxQr640b9la0md2k7HjJ0qjhvUluo3P4wi8d9KkSeXP2XNU0/Dz58/l77nz5cED3ybkiM7O0qNbF2n/cxt1/aIW9BMm/SE/NW9q9z0xAAuDwbJkyyXbd+yUtv9rFeLP96Vi2BIRmQRVorPzh+ZcNJ+iHxf9uejDtIQm2Q0b/5X8WqVqXfEGZvnKVbJ8xSrZvGGdXD5/WmZMnSw9f+0jx46f0B8RPKg6f+vVQw2KKli4uJSvXE3Sp0sruXLlVP2vlvCYIcNHSLu2/wu0kk6XNo3s2r5Zzp8+IS2aNZWf23eWvfv26/d+HRi2REQfIVLkSBI3Tmy5ceOmvsYX+j0TJUyoBdSH4MQoYPdTpyRf3jz6mg8w+OiWh4fN++xBszMOq2netLFWjSZRTc+uWTJLrZo1ZNXqNUGOHrYnfvz4MnbUCDW6ec+OrVKgQD7x9vZSVbQlDHLCYKsGjZv5Hc6EQ3+mTJshNevUU9/XEpqn8+bJrVXidWTN2vX+Dm0K7xi2REQfAU2pWTJnljNnz/obMHTm7DnJkT2bv2rw4qXLKhBTpvB/uA8cOnxENeEioB3l7eOtBmDZ6kt98+ZtgCbskMJnS5UylSRIkEBf4yt/vrwBDmkaPmSQtG7ZQpYtXiBx48bVH0kMWyKij5RPCx2MSN6ydZsapHT02DE1+USpkiX0R/g6cvSYZMqYQWLGjKGv8YVBU5s3b5WSJYo5PDAKMGK5lPacyVOmqyBHpYhg/Gf+QnUMLyrJkNi2fYea8AI7D7j+19/zpN73tdWOBdZZj0YODH6X1WvXqe+Ix+PzzZ03XypXqhDiz/clYtgSEX2kb1KllIH9+sgcLZQwSGnMuAnyW69fVNOuAUF465aHpEubNkCg4thW54jOkilTRn2NY/A6zZo2lupVK6uZozK6ZpeBQ4ZJl07tpXy5Mvqjgg99sZjwwi1HHtVMPWbkMEmbJo1+b/DEjx9P1m/YJHnyF5Isbjll3PiJ0uuX7lKwQH79EV8HJ20vTM2ZhWYP4zKwxdvbO8B1Dw8PcXMLOLKOiIgCh20opkZE8zFmmiLHeXp66tc+nevXr0vy5MnVjgwm4cCl9XV7CxiXgOsRep0Rn6GuTqxsiYg+I1SRR48dV03RFH4xbImIPiNMhoF5ktEUTeEXw5aIiMhkDFsiIiKTMWyJiIhMxrAlIiIyGcOWiIjIZAxbIiIikzFsiYiITMawJSIiMhnDloiIyGQMWyIiIpMxbImIiEzGsCUiIjIZw5aIiMhkDFsiIiKTMWyJiIhMxrAlIiIyGcOWiIjIZAxbIiIikzFsiYiITMawJSIiMhnDloiIyGQMWyIiIpMxbImIiEzm5OXl5YMrPj7qQl0Gtnh7ewe47uHhIW5ubur5n8KTJ0/k6dOn8urVK9E+n76WiChknJ2dxcXFReLEiSNx48bV19KXztPTU7/26Vy/fl2SJ08uTk5OEiFCBHVpfd3eAsYl4HqEXmfEZ6irU5gK29evX6vXev/+vfqfIkaMGBI9enT9XiKi4Hv79q26fPHihdy/f18iRoyoNqZRo0ZV6+nL9SWFbZhpRkbQXrlyRQVsxowZJXHixAxaIvpokSNHVgsq2tSpU6ttDLY12OYQhZYwE7aoaOPHj69ClojIDAhdbGOwrcE2hyi0hImwRR8tmo4ZtEQUGlDlookP2x6i0BAmwhaDoRIlSqTfIiIyl1HhYttDFBrCRNhi1DH7Z4koNEWKFElte4hCQ5gIWxzegz1NIqLQxEMLKbSEmQFSREShiTv4FJoYtkRERCZj2BIREZmMYUtERGQyhi0REZHJGLZEREQmY9gSERGZjGFLRERkMoYtERGRyRi2REREJmPYEhERmYxhS0REZDKGLRERkckYtkRERCZj2BIREZmMYUtERGQyhi0REZHJGLZhlLe3t0ycPEW2bd+hryEioi8Vw/YzWrFytfTtP0jevHmjr/E1b/5C2bjpXyldqoSsW79RXrx8qdYfOHhI0mTI4m8pUry0XLp8Rd0fXrx69Vo6de0ue/bu09eIvH37VrZu2y6ens9l9dp1MmrMOHn//r26b9/+A+LhcVtdt3bz1i1p3vJ/cvmK/9/o+ImT0qNXb/nvv//0NUHD5+r5ax/Z+O9mfU3wYMepXYfO8vLVK32NY/D3bdC4mdy5c1df4wvrm7ZoKQ8ePNTXEFFYxbD9jK5cvSrRo0eTKFGi6Gt8FS70nWzY+K/EjRtX4sWLK7dv39HvEWndsoVcuXDGb9m1fbOkS5tGv/fTuXjxkvzYqKmcPXdeXxNyCKmOXbrLiFFj9DWBixo1iiRKmFAiRoyorxE5feas7Ny1RyJFiqTuQ+WP+xE0i5cuEx/tP1sQqnlz55LU334rtzw85PXr12p9jBgxJHLkyOLs7PseCMDJU6bJn3/9Le+9vNQ6a888n6m/WYrkyfU1wRMtWjRJmTKFRHNx0dfYd+3ade377hYfH9/vhc+K38Wak1ME7Xdw1m85Dn+LDFmyyeEjR/U1jnny5In6W+LSkvE33rR5i76GiCx9FWGLDdakP6ZK3oKF1UY7LEA1ixBNny6dvsbXylVrZPWatZIwUUK5cuWq9OzRTXtMWv1e+4yNnXXla7kEpwpGMD179kwL/Dj6GpG9+/ZL7z795MbNm/oaczg5OWkh6BsgCEeEzj9atd+wwQ/y7t07tR5/02PHT8iiJUuldMmSKnjv3vVf+SGIUU1Wq1pFvSa++4xZs/3C1EcL7Pv378vU6TOldt36ElXb6alds7pE1N/b2tmz59Qlgtr91ClZsnS5dO3eU8ZPnKzWAyrvRk1b2Pz9f2jQWKZMm2HzPiyLlyzTX0UkQYL4smr1Wlm6bIVf4F7QdoDwNzQeX7ZCZdm+Y6fkzl/I3+v8PmGSenxgsPOROFEiiRPnw9/3Y7x+/Ur9/tgRIqKAvoqwvf/ggbYHf0QypE+vNk7GxutzeqWFCAINlY6lLJkzaVXtJilTqqQULJBfXxs0F5eoMm70CH9Vr+Wyaf0atQF3FCradNqOQOxYsdVt/Gbx48WTi5cuS53vf1RBg6Zda0+1gEYgf4qKGCJqlSyqU3x2VHdoXkbTMML16rVrqgk5b57cMn3mn7J7zz71ORGm+ByrVq+RKJGjqOZoBND8BQtVsG7a5NsMvFtbP3T4SHHNklmWLZ4vzZo2lpgxY6r7wLrZHs3Rjx8/kf4DB8vWbTtUUHXp1EHa/K+V/gxRlfc336RSv7f132D39i2yctkiuXDWPcB9w4cM0l/BFwK9e7fOck/bGXj+/LlalyF9OtWSYTwH71G8WFE5cmCPv9fq0K6tenxoeqT9LhA/fjx1iab+zG45/f1+WMJjtweRI76KsD2jVbNRo7pI08aNtLDdFaAJLLSg6c7Y6OTKW1AOHjosdX9ooG7nzFNAlq9YJWnTppE6tWvK7Dlz/fpqzYRqFYFj+V4vXryQEydPSvZsbirEAZVhxowZ5O/ZM6X9z23kt34DpEu3XwL8lg8fPlIhhtcILsvqHBUgKsG69X6Uet/X0f5+UeV/bdtL44Y/So7s2VWYli9XVsqULimDhg6XyFrIVa9eVX3OO3fuSOs27VTgY2cGAVCpQnkZM3K4rFm5TA4dPiwvX76QIoULydjRI1WzPV4f8Hus37BRXc+fL69fgC1eME9y58olc+fMklnTp6hAQ5960qRJ/FXCaM729vLWb/mHnYT5CxaritoRqBLbtG6pqntbOzZhydOnT9WlsbNSpVJFOet+zN9OABazuj2IwrpwH7bYSG3Y9K8UKlhAcuXMrta5nzqjLkNb966d/TY6k8aPlcoVK8ipE0fU7al/TFRNothoFS9WTDxu35YTWkVnNjQnnjt/QXr92kee6BtMhMLVq9ckX9486rYlVJc/1q8nC/+Zo8I3ZqxY+j2+Ll68KDGiR5cUKYLfr2lU53t3bVMV/oC+v2kV5wIVOjlzZNfCraSqHN+/fycRnHz/6ZYqWUK8vN5LubJl5MKFi2pdyhQpZMG8OTJqxFAVViWKF5P0WlUYXftc36RKKX1/+1WiRYsu79+9F2/vD/2zCLVdu/dol/4HrKGynD5jllSrUkk1vQbmjfYad+7elUePHknNOvX8dq6wYOdhwaLFktE1u7/1tpp9sfPz7+atUr9hE9VMbQwG+5ScIzqLc4RPswl48OCBJEmSRLUkEFFA4T5s79y9J+fOXZCcOXOoAUcIkO07dgQYBIOqEwtGtXbo1FU1gaHaHDhkmF8IAfrVUH2hvxX34TF4LJ5jb0SsNbw3qtpMmTL6DZZJpYUA+ikfP3kqqbRqrEihQtrGdovdwTqfCiqzcWNGqusdO3dTTe779h/UKuy08u2336j1tmRzc5Of27T2V9Vhx2b7zl1SsEABSZAggb72Aww+atOuo+zeszfQqh2h+eyZp6pM8TgM1lqzbr3UqF5NdQOcOXtOVc4YSYzWAAQtPsc0LRBR8YJRJRcrWVZq1P5eLWXKV1YBiGo8bpzY6u+aM29Bv9DDY/F+RYsUUq8BaJZev2GT3Lh5Sw4fPSZuOfPKr7/1s/v58W8MlS+qYuwoGDtXWObP/SvAADcsqJLRmoEF0HTcrEUrOXb8uIwcPkQGDeinBldZ98vb6rPF/XicI+JpnzWO9jt8Cv/990KSaf+WjJYQIvIv3Iftrl27tT3uRPLtN6lUEyPCFn14toLx6rXr8vvESVKzRnXZsXWTjBk1XAXD0GEj/W3AsLEeNXac5MieTTauX62aVh9qlUz3nr+qiiYonlognDp9VnLnyqmvEa0iiKyqRsDnLFmimBw4eNjhAP8YcePEkSGDB0hCLSB/bNhU5sydp1oComsb+OAwRgyXL+cbftZQYWbMkF4dcpNHC4hffv1NBatlHzquo0+vQP58anAW+q9R2aFpdrO285EpY0Zxdz8lESNFlJmzZsu/W7bK+AmT5cixY5IieTI5ffpDq0XMmDFkphZ8y5csVMui+X9rOzWp1H3x48eXKZPGy4UzJ/1C78Denaqaxn0G9AmjmT1/vjzSs0dX2b9nhwp5HIaEHSEM0sL3wOFaljAADoOnjBDEYm+AFPqGLaF6nvf3bNUSYjnyGUE2cthgmTxhnGz7d4O/wDYWtAw4EnjYufuU0H9uOXqciPwL12GL6mPPvv3ahju/akKETJkyaBujaHLS3V3dtnTq1Glp0bSJFCtaWDVdIhyGDOyvKkzLxx89dlyqV62i+qXwuDy5c8mQQQPkrlZFY+BMUFAlQWCVI/puVTOuRRCZCcHar8+vklmrthFsBQs6PjgLsDMyf8EiVdFlyZxZX+sfdnhQxe3Y+q/MnjlNnmpVfOXqtVRf7N1799RjUFmj2RYVN14Lx5aO1QIETcLNmzXRqtuqqhk4SeLEUqZ0KVm1bLH079tbYsWMJR07tHN4UBlGE3fu1kONHrYHFTWOg8YAqF97/aJCEL9TjhzZZcy48VolXEb1DWMwk1vWLP52GnA4Fz6zZRDO/WuWzcoW39Oa5c4K+jhRLaNqfv/eSzZs2uz3e4UlaL4nItvCddhiY3n06DHV32dA1YIQs5wswoCNHkaSWkLoYVTujRsfDndBdZUtm5t+y1eSxInU+2APPygYhJPVNbO/Cuq/Fy/kpcXniRM7tgo/689jJgQmwg59tn9MmW63qdQaQmbtuvXajs0+aaEFYlCVFYIEv/UfWmW5ad1qSawFp4+3b1CheR2jbjFgCX2A+E1xPKh1NYhq1xhchgkfunT/RTJkdpNDh4+o1wFUoJhEwmhGxiE5RksBdriwA4Y+YEB/LboIMPALTdiA0eK1alSTpk0aqc9sHIs7fsIkFSzTp0yWPbu2Se+ePVSzOlokAoP3RjAHBS0n1v29xuKaPZcaZY0q2db9WBxtSsYxxk6fqM+WiAIXbv9PQwCgufjBw4f+NlzYIM/8c7YcP35CblodL5ooUcIAE0ygaTdpksT6LV/JkycLMBAEjzMOewgM+hT3HzioBkFZVi9v3rxVg2A+1YCV4EKT6Lz5C8RLq2pRdaJ5dAkmiwiissb9m7dsk+GjRkun9u3UYTSOQjihukdlikoWvw2a7XPpzeu4v9B3BVX1h4oQfZ5GNbh6xVJp0qiBnD99Qk4cOaAOqbl8/rS/KhHBNuH3MX7NyHP+nKH+dgaMCsZAtClTp0vVGrVVX2lnrTqOHdt30BdaNlq3+kn9ndCyUavOD3Lv3n11iFBW1yxqEJfl3xACC0o0n2PmK1v3YTFCEhWsdX/vuVPHZWC/Pqo1ZcOaldpOQHXZtnmj3/0b165SrQbuxw873JRs69/xp4DfABOinLJo0if62oXbsMX/8JjQABsoHIdouWAjlSZNatmydbu/MHmlVS7WA5JeadXdda2qteyPevXqpb9RrIDjZtHkGVS/1eXLV9QGFc3ZllCF4bmfasBKcB08eEhNoNCpw89StEhhadumlZqbGX2W9mBAFCabQHNsh5/b+h16E1KoMiuULxdgYgRMZPHu3Xs1exOqT7wvmqRReWOCjZl//qX+ll5Wh9QEVtkCuhhGjh6jRlWvWr5EDfhC0FlDC0mv3n1V4Pf9rZdqwrbHVlBiwb85tKjgcKrfx45SOwbWj7EVkviOmOikXKWqakAXBkxlyJBeNadPnTZDDRRDtwYqcjShOzI7FWCnxNFQDq432t8H/w6Mw6mIKByHLQ7vwaCl/GqgTVx/Cw7/QMWE5txnnr5NhoCp6x7cf6Df8nXS/ZT2Og8lc+aM+hpt3clTajCVJcz2hEE6OBbTHgQ5pmEsXqxIgEDBsaFYF+UzbKDQ9Io5f1EZGX2eOCypXJnSauYt60FfmCoRlW/DJs1Vcy422jgcyLrKCy70hxYvWiRAYD96/FjbmXmlPs9jbScKo8CxY+Lm6qpGgaOP96cWzVQIYzEEVdni+Npxo0epCtZeMOBvtkgLeOwEVK1SSSKEoOUBoT9B+51q16whUyZPkGXLV6jWAHutBvgOOOynVZufpV79hmpnAwPW0GdsDKLD3ylXzhxStmIVdTjRxN/HqjD/mJ2dj+VlsQOK7+bo8cREX4NwGbbYOGEif0x+kDzZh42rpWLaRh0BeeLEh4FP2ICP0CqdI0ePqb7Lef8skF96/Sbf16mt+m0NCOwJkybLjp271eMwMX27jp21DWJB30FNdqCqOnL0qJQqWdzfRhEbV1RZlocChQZsENFs214LrFo1q/urTLFR/6lFc1XlGoPLULnP0qrISlVrquM/0ZS6dtVydazrp97I42+IEb34jDu13zlThgwSL148+al5UzVrEz7L+o2b1G+HPlUE9dq169Xf/WOgSly4eIl+S/scb9+prggMgjO+Iw7RwUjhoBg7JS1atVHVM35fBOaAfn3kr7/nSr8Bg1XTtbUI2k5LhAhO0qtHd1m5bLHUrlVDYlkcz4xBXejbxrzZGD19/vxFOXr8uL8djaAYE6xYj4T+GMa4Bkxsgc87UdtRO3f+vGplslyMKTeJvibhMmxvaxtibERQDdhrJkMzZLZsWVXYGE3HqBZ+/KGe9B80RAoUKiazZs+Rbl07qeZDy6oNzXjt2rbR7v9LChcrJX36DpDva9eSfn17B9osd/7CBTXgJ03q1Oo2jhHFBi9T1hxqJDM2qiGFpmnLYzCtFxyTidmdDNgwo++6bftO2nf5nxpxa12ZogWg1U/N/aq+21r1vV6rzJs0biB7d26V337tGawpIB2Fvwcm90BFiGZs7MxUKF9WrccEHEOGjpAftLCvq/3mGKE8cvQ4NS8vNuwpU9o/pAWTVVieYQm/uTHzEWCQ1IGDB7VK/rG+xvdwG/TNorkcO0sI0MDgfnwWTGeJQUzDRoySXr90UwPHjN8Xg6umTZkkiRMnkoqVq6tpIDFrFXYg8B3xOOzAYPYrzE+NwMZ7o1m/VNmKascOxxpnzpRJPW7mtD/kwIGDqsrFBBnntd/I+DcdWjA5itENgx0fDBrD5CaNm/6kjgO2XLBDQ/S1cfLy8lJtWUaTlmr+CWTBxsT6uoeHh7i5+R+dGxzu7u4f9fxPAXv6EFTFgj5DVKFDBw0wpb8rtKAfcszvE6Rt65aSNaurvtYc2BHo2buPmvTAkYrQeHxdrYJ8+vSZ6t/GDgomcEDg1KtbRypWLK9aAbBxX7FylYwcNVZKligufXr3Un8XvMaQ4SOkccMGahDW8BGjZe4/86VB/R+kW5eOaiAYWidwuJLRlYDjjMuVKyMdfm7jb6Q4Qhj92avWrFXdCtanRMyoVd04Zhcjx3GMcMfOXaWAtuOGQUw4rjiwpmc0gWOHb8GiJWqA3LjRIyVhQt8JQbBDNGDwUHUdO45oqcEJKuw11+PEC1u3b5dz585L547t/c3z/KmgMu0/aKj07d1TtfAYMD4Cze043Alh+6UIC9seCjlPi27AT+X69euSPHly1ZKF/3dxaX3d3gLGJeB6hF5nxGeoqxPDVve1hS2RI/DvHaOoLWEyF1TTlmH7pWLYftm+pLANtwOkiOjjoX/aetQ0RluHh6AlCk0MWyIiIpMxbHVoPnakPxF7+mYdn0hEROETw5aIiMhkDFsiIiKTMWyJiIhMxkN/iOirxW3Pl8049Of48Y+fKCVHjhzqkof+EBERfaEYtkRERCZj2IYjOLn5r7/1U3PpEhFR2MGw/czmzJ2nzi5kOXE85tctUry0zRMKGEuGLNnUKQEtYW5cnA4PJxDAHLb2TmKOpXjpcnL16jX9mb7wvjjvKy5DCtNeGlNfBofxeT/lWWiIiMIKhq0V4+w5mBM2uHDqMITG7dt31Nlqdu7aLTNnzZZx4ydK1+49VZBVqFxdan9fXz0OypcrK5u3bpUVK1apwWaG4sWLyukTRwNMlWcsF86cVKd9s4QTwLu5ZVVT6WGxdRJzY9m+eaOkTv2t/kwiIjLTVxG2CEGco3bE6LFStWYdVRVmdsspbdp1VKcqCw6cBu2n1m3lwoWL+hpfqMjyFSwiTZq3km6/9JJdu/fIiZPukiJlCnX6MVSuSZMmVedinfj7GIkdO7Z6Hk4Y37vXLzJ7zt/qHKUh9fTZM9m2Y6c6V+5I7XvaqmZtLagmjeAPLuyQWL/elGkz1ILr+J2xc9G+Yxf1+QKrtnHqteMnTqrT0lmuD0mVTEQU1oTbQ3/Qf4nAW7Z8hew/cEgK5M8rNWtUl7xaNYiqD6cz27xlqwwZNlKGDx0k3xUsoJ5nnN4NpzTD1IzW8H0nT5mmhe4ddTo3nGQ9MCe174b36NShnTqxvOWwcEuohnEycJw7Fs24OLk4Th7u6LSQ69ZvVOfXnT5lUognicf79hswSJ0mLUnixPra4HH07EnWEMQ4r2uPbl0kf768+loic/HQny8bD/0JA9B3uWbNOqlds6bs3bVNpk6eKOXKlNYCLZ76ASJFiqSacHHi9L/nzZcXL1/qzwwcnlu5UkVVEV+5elVfaxvOGTt0+CgZ2K+PChDLP4K1ZMmS+p2kHbZv3ymu2XP5q/KM5cdGTdX3M6CvFn2/2Pn5GDhZO3ZCogSxAxGYiBEj6teIiMgQbsM2ZYoUMuH3MVKmdEm7J7NG+BUsmF/u3bsn165d19cGLXnyZJI9m5ts2bpdVbq2oNkUJy9v+GN9SZ8+nb7WceizXbLwH2nc8Ec5d+q4X1/r72NHSaaMGSR2nDjqcWienjd/gSTWKlHLE54H1mSLpU69BuozWsJJ0XHC8o+B390R2DHYsHGTamZGc/P/fu6gWhWIiMKjr36AVIzo0dXl/fv31aUjIjo7S9EihWXvvv3yzM7Ji9GEHTWqixQrVkRfE5B1n6cxEheh9/7de0mTJrUK09Nnzqr1CMc1a9epyhqfATAo6qT7KS3UfxAvixHNQQ2QWrxgrsTR+41DytaoaZxo3OizNRYMOLMO0v0HDsr4iX/I2NHD1c5EzerV5PKVkI+CJiIKy776sI0SNaqkSJ5cHj780CzriHTp0qr+AlsVMQZk7dt3QIoVLWy3qgbjxNwYdVy1SmV9rW9zbty4cVQYIoTGT5wk97SdgU2bNqvPihHHhlw5c8iYUcMljl7pGkJS2QZXurRpZNf2zf5CfPiQQaoav3DW3W+drVMSImzx/TNlzKj6QjCwK3OmTPLSweZ8IqIvyVcftm9ev5ZbHh6qaRiiRo0iiRMllP9evFC37YmnVY7oZ0W/rDVUcXhNjEIOiavXrknChAnV9RzZs0mpEiWkYeNmsn7jRmnVsoVfVQvo57VVoYZGZWvPk6fP5N3bd/ot29A3bAsn5CCi8OirD9srV6/J8+f/SaJEidRt9ONGiRJFHjx4oG4DgnP6zD/ltRbMhmhaxfrtN9/IpcuXA/Tbenm9V9VpSKDP9MQJd8mSOZO6jc/j6ppFBXismLEkgslj2mLEiCHOzrYHOXl6PpdhI0bJzVu39DUBOTpAqnCh72T7jp3qt0VT+b9btsrZc+fshjAR0Zfsqw5bjECe8/c8yZ8vj6RK+WFgDyrS23fu+vUzenjclt179mpB+KFaQwhiUggcd/vKIoQBQZwmdWq5ceOmvsZxGOGMJuCMGTOo4MXsUr/17S9/TPxd8ufPJ9Vq1VF9vZbBbwv6f201H1sutmZrwmhtjNS2BSG7c9ceefPGdxCVMcgJxy4br4lBYTdu3FDVub3BY1BA+y61a9WQ7+s3lCxuOdXrVq9aRYU9EVF489WG7Y2bN9VkC/e1CrZ9u7b+jpfNkCG9Oo72meczFRiYFhHHyMaM6T8IMmbIoEYa+1gdcoPKGM2/y1asVK8fFB/tP2+tusPAqLnz5qtBVUePHlMjdS9cvCR//zVLsmZ1lfr16sr8uX/Jlq3bpFS5irJ123b9FWxr3bKFzSZk6z5iR+B3QCXq5ubqt2OyYeO/smbdepk6aYJcPn9a9dMOHthfHYr0U+s20m/AYLt94einrVKpouzZsVXNhjVkUH+5e++euGbJoj+CiCj8+GrCFoOWMHHE+g0b1eQJlar6Ds6ZrFWMmMXJ0rfffqMqPEwUgYE8mPwCA3isj5PNmSO7Ok43uj6i2VLlyhXV+p6/9lHBbg8q1PETJqnZpo4eOy5NmzRSQZgkSRKZOe0P6dfnV4lrMfgpVcqU6jP/OX2q5MzpexD2p4KdBFTxL18G7K92P3VKli1fKfXq1vHbMTl1+rQUK1JEkiZNon4b9CU/fvxYcufOJSuWLFLrfmzcVM6dP68ebw8CedDgYWoiDezUEBGFN19F2GLUbYtWbaRVm5/VlIhNGzeU/Xt2SLcuHf0FmQEjiDt3bC8rVq2Wjp27SfNmTVQVGxwYfDRy+BD1+uUqVpVuPXrJtu07/I0ARrC1bd9JHj95IiuW+YbTn3/9LTe1cMao42++SeUX8Kgs0WeKJuZn2mtg/a1bt/ydwMCa9SE4xoLJMlatXqM/6gPsZMSIEU1Vq0YzNZra0VTcQfsd2rZppSp2A5rb0byOkdKAkdlLl62UPLlySsKECaT3r79I7Zo1pF2HLv4GkuG74HdAM/bAIcO036eK747JL90cnjGLiOhLEm6nawwr8Budv3BRli5fITt27JL6P3yvwh5wnCqagps0aqCqRfTR4tjdhYuXypkzZ20OREL1iUNuMBCpRvWq0qjBj2o9XmvIsBEyesRQNRIZQbZj5y6b0yaiufq3vgOkbp1aAU5mgB0AzCG9U3sujiFOmCCBlC5VUh3OgyZzI/wBgTx7zlyZv2CR+qx4LCpzfB9jNizsDMzRHlOkcCG/yT3wbwb9znhuubKl1ffAZBiWr00UGjhd45ftS5qukWFLRF8tbnu+bJwbmYiIiPwwbImIiEzGsCUiIjIZw5aIiMhkDFsiIiKTMWyJiIhMxrAlIiIyGcOWiIjIZAxbIiIikzFsiYiITMawJSIiMhnDloiIyGQMWyIiIpMxbImIiEzGsCUiIjIZw5aIiMhkDFsiIiKTMWyJiIhMFibC1tnZWV68eKHfIiIyH7Y52PYQhYYwEbYuLi7y9u1b/RYRkfmwzcG2hyg0hImwjRMnjty/f1+/RURkvidPnqhtD1FoCBNhGzduXIkYMaLcu3dPX0NEZB5sa3x8fNS2hyg0hJkBUsmTJ5fnz58zcInIVNjGPHr0SG1ziEJLmAnbqFGjSooUKeS///6T8+fPqyYeDpoiok8B/bMIWWxbsI1JkyaN2uYQhRYnLy8vH1xBk4pxGdji7e0d4LqHh4e4ubmp538KCNqnT5/Kq1evRPt8+loiopDBqGMMhkIfLZuOww9PT091efz4cXX5MXLkyKEur1+/rlo9nJycJEKECOrS+rq9BYxLwPUIvc6Iz1BXpzAZtkREREH5ksI2zDQjExERhVcMWyIiIpMxbImIiEzGsCUiIjIZw5aIiMhkDFsiIiKTMWyJiIhMxrAlIiIyWZgJWw+P29KmXUfJkCWbVKhcXXbu2q0mzIDFS5ZJmgxZAixFipeWS5evqMdY2rFzt/Tu00/evXunrxE1RVu/AYPlwMFD+hpfeI+Dhw5L1Zp11Hu3btNOrl27rt8buHv370u3Hr0CfIaXr17J5CnTJGeeAmoZNmKUvHj5Ur/XPkwp16NXbxkxaoy+RuS9l5esWLlaSpWtqL4zPqflb0NERGFfmAhbTArep/9AqVa1spx1PyaDBvSRkaPHyvkLF9T9dWrXlCsXzvhbZk77QwoX+k5SpUyhHmNAYG3YuEnKlC4tkSJFUsE3758FUqZCFVm8dKn+qA/wHgMHD5W+vXuq9y5Zorj6LPhM9mA6yfETJ0v5ilXl0JEj+lpfCMfRY8bJs2fPZM+ubbJty0a5/+CBzJw1W90XmMNHjsq69Rv1W7683r+XyJEjy9LF8+XSuVPSuWN76T9wiN9vQ0REYV+YCFtUlgkSxJcSxYqqOUxz5cwpRYsUka3bduiP8O+pFmTz5i+U2rVqqCCydOfuPXmpVZHZs/tOH3nmzFlxP31aZs+YqgLYmrv7acmTO5f2+OzqvStVLC/RXFzkaiDVLSpnVM2L5s+VNKlT62t9oSo+f+GiNG3SSL1OnNixpU3rVuo7Pnz4UH9UQPhOi5cuk5rVq+lrfEWJEkUqViinXgfTheXPm1fc3LLK1avX9EcQEVFY99nDFs2hx0+clJw5svsFJ+aTzJM7p1y4eElevXqt1lk6duy4JEyQQNyyuuprPti1a7dkyJBeYseKpW4jSIcNHiipUqVSt63hPLrWIkaKaHO9oXq1KtKlUwe1g2ANFTHCPorFTkD8eHHlvVah3tV2BFDdDh85WlXGRqWL32DBgkVSMH9+yeqaRa2zxwf/aY9PmDChvoaIiMK6zx62r1+/kXv3H0jiRIn0Nb6iRYum+nHfvH2jr/GFvs+ly1dI+XJlA1S1np7PZffefVKqZHF/k0EHpkD+fCrUDx8+os4wtHbdBnGJ6iLp06fTHxE8MWLEUM3Xb96+1deIuo4+4zdv/H8Xw779B+SKVqlWqlRBX2Pb69evZeWq1eLiElUyZ86kryUiorAuzAyQQrha8/J6Lz7e3votX+fOnVfnuTWaiS1dvHRJEsSPF6BpNzBJkiSWH+rVleYtW0v6zG4ydvxEadSwvkS38XkcgfdOmjSp/Dl7jmoaxgnx/547Xx488G1CjujsLD26dZH2P7dR1y9qQT9h0h/yU/Omdt8TA7AwGCxLtlyyfcdOafu/ViH+fEREFPrCTNjagirR2flDcy6aT9GPi/5c9GFaQpPsho3/Sn6tUrWueAOzfOUqWb5ilWzesE4unz8tM6ZOlp6/9pFjx0/ojwgeVJ2/9eqhBkUVLFxcyleuJunTpZVcuXKq/ldLeMyQ4SOkXdv/BVpJp0ubRnZt3yznT5+QFs2ays/tO8veffv1e4mIKKz77GEbKXIkiRsntty4cVNf4wv9nokSJtQC6kNwYhSw+6lTki9vHn3NBxh8dMvDw+Z99qDZGYfVNG/aWKtGk6imZ9csmaVWzRqyavWaIEcP2xM/fnwZO2qEGt28Z8dWKVAgn3h7e6kq2hIGOWGwVYPGzfwOZ8KhP1OmzZCadeqp72sJzdN58+TWKvE6smbten+HNhERUdj12cMWTalZMmeWM2fP+hswdObsOcmRPZu/avDipcsqEFOm8H+4Dxw6fEQ14SKgHeXt460GYNnqS33z5m2AJuyQwmdLlTKVJEiQQF/jK3++vAEOaRo+ZJC0btlCli1eIHHjxtUfSUREX7Iw0YycTwsdjEjesnWbGqR09NgxNflEqZIl9Ef4OnL0mGTKmEFixoyhr/GFQVObN2+VkiWKOTwwCjBiuZT2nMlTpqsgR6WIYPxn/kJ1DC8qyZDYtn2HmvACOw+4/tff86Te97XVjgXWWY9GDgx+l9Vr16nviMfj882dN18qV6oQ4s9HREShK0yE7TepUsrAfn1kjhZKGKQ0ZtwE+a3XL6pp14AgvHXLQ9KlTRsgUHFsq3NEZ8mUKaO+xjF4nWZNG0v1qpXVzFEZXbPLwCHDpEun9lK+XBn9UcGHvlhMeOGWI49qph4zcpikTZNGvzd44sePJ+s3bJI8+QtJFrecMm78ROn1S3cpWCC//ggiIgrrnLRKUs37h6Zb4zKwxdvbO8B1Dw8PcXMLODo4NOD9MTUimo8x0xQREX0dPD091eXx48fV5cfIkSOHurx+/bokT55cFWOYSAiX1tftLWBcAq5H6HVGfIa6OoXp0ciOQBV59Nhx1RRNREQUFn3xYYvJMDBPMpqiiYiIwqIvPmyJiIjCOoYtERGRyRi2REREJmPYEhERmYxhS0REZDKGLRERkckYtkRERCZj2BIREZmMYUtERGQyhi0REZHJGLZEREQmY9gSERGZjGFLRERkMoYtERGRyRi2REREJmPYEhERmYxhS0REZDInLy8vH1zx8VEX6jKwxdvbO8B1Dw8PcXNzU88nIiIKDZ6envq1T+f69euSPHlycXJykggRIqhL6+v2FjAuAdcj9DojPkNdnVjZEhERmYxhS0REZDKGLRERkckYtkRERCZj2BIREZmMYUtERGQyHvpDRERfJHuH/qxatUq/Zl/VqlX1a/7x0B8iIiIH2AtSQ1D3m4FhS0RE4Y69QP0cQQsMWyIiCpesg/VzBS0wbImIKNwyAvZzBi0wbImIKFz73EELDFsiIiKTMWyJiIhMxrAlIiIyGcOWiIjIZAxbIiIikzFsiYiITMawJSIiMhnDloiIyGQ86w8REZHO3d2dZ/0hIiL6EjFsiYiITMawJSIiMhnDloiIyGQMWyIiIpMxbImIiEzGsCUiIjIZw5aIiMhkDFsiIiKThckZpJ6/eCkvXr6WN2/fqfcgIiLbMLNRlMiRJHq0qBIzejR97cf5e7+P/LnXR87cFnn5Tl8ZxkSLJJIlmUjT75ykYYEPszZ9LLNmkApTYfv23Xt5+Pip+lL4RxM1amRx1q4TEZFtXtp2+PXrt6pIwTY5Qbw4EjlSRP3e4DnpIdJkto/c9/QWz9efLsDMFCuqjySKFUFmN3GSbMn1lR8h3E/XiKC9c/+RxNBCNknCeGovjUFLRBQ4bCexvcR2E9tPbEexPQ0uBG3Zsd5y6b7PFxO0gM+Kz4zPju8QVoWZNENFGzd2TIkV49M0gxARfW2w/cR2FNvT4EJFG1abjB2Bz47vEFaFibBF8wdKdAYtEdHHwXYU21NsVx2FPlo0HX/p8B3wXcKiMBG2GAz1qTr2iYi+dtieYrvqKAyG+pKaju3Bd8B3CYvCRNhi1DEGQxER0cfD9hTbVUdh1HF4EVa/S5gIW4yg42AoIqJPA9vT4Bw2+SX31VoLq9+FCUdERGQyhi0REZHJGLZEREQmY9gSERGZjGFLRERkMoYtERGRyRi2REREJmPY0if15MkTqf19ffnr77n6GiIiYth+JgilmnXqyYhRY/Q1wXfx4iWpUft7Oenurq8JGg50f/rsmXp/ywXr3nt56Y/6OHiPRAkT6reIiIhhG4RFi5dK42Y/yZ07d/U1Yce5CxfE2dlZUiR3/CSOz7RQbdaileTOX8jfUqVaLbl27br+qI8XL148/RoREYWbsF28ZJmkyZAlyOXAwUP6M4KGSu/suXMSO1YsiR0ntr7Wd/34iZPVgqrwc3j79q3s3rNXXLNkES8vbzl2/IQsWbpcunbvKb/1GyCvXtmehDxu3LiybPECuXLhjN+yZeM6iaN9vzdv3uiPIqKvhU/YPStduBJuwrZypYpy5MAeu8uShf9I0qRJ9Ec7xlOrAt1PnZZMmTJKNBcXfa0vt6yusnzlKilfqZoKOYSfLefOn5d+AwbL3Xv39DUhc+nyFSlSvLTfTkOmrDnUDsbf8/6RytVqypBhI+Ws9l7FixeV1j+1kKhRo+jPDJoXmpafPpP//vtPXxO0d+/eBWiKxoLXwc4IXsvW/Vjs7QgQUejy1oL23Zd/Zr0vQrgJWxeXqKpqs7fE0qrTCE4Bv66PtluHCrF33/7y5Kn/Ey5fvXZdbt68Jd8VLKCv8RXR2VlKFC8ma1ctl8aNGqhKsmGT5nL9+g39ER9cvXpN/t2yRZ57PtfXhMy3334jq1cuVTsOB/bslCba+9avV1fOnTouB/bulMUL5spvvX6RyhUrSPLkycTJyfHTZT169Eg8bt/Wvu81fU3Qjh47HqApGkupchXllLaD8lPrtjbvx7Jm7Tr9VYjoc3mvhawXgzbUfPV9tgil9OnTyYMHD1RfJgYdAUJ467Ydki5dWhV0tqDabdO6pSyeP1fy5M4tCRIm0O/xhQrv4KHDkjZNGkmcOLG+NmQQ8HFix1Y7Dvfu35d9+w9Kve/rSuTIH39qQoRs3Dhx1Hd3dJBU/nx5/TVFG8uhfbskd65cAZqqsZw+cVSqVqmsvwIRfS7vtf/N0XwcXluQ8f3Cmq8+bCFxokTy+5hRKkAaNG6mKl0EGi4rlCurQi4wWbO6SrcuHSV6NP8nwEfFePTYCfW6MWPG0Nf6t3L1Gvl9wiRVFTtySqwXL1/K7L/+lmTJksrQ4SMls1tOmfXnXw6HpDU0B588eUqaNmkkt+/cVU3nH+MJmpHfv5MYMWx/XyL6fBCu77RNBbY04bmrFt8P3zMsfUeGrS5q1KjStUsnadG8qXTq2l06du6m+h2LFCmsPyL4du7cLVeuXpUC+fPZbdZFRblh479Sokx5qVS1pur/ffnqlX6vf6i216/fKHv27pMY0aNL/76/yeQJ42T6rNly4sRJ9Rg8F6+Bpm0Ec1DQl4zPWKxoYYmpBSSazj/G06dP1Qjp+PHi6muIKCxAJasqWv12eIfvaVTwYQHD1gKaaps3bSydOrRXzb+FChVU/Z8hgcp40ZJlUrFCOTWYyp6iWpj/v717gZKquNMA/u+eGRnE8cErBxE84GN1ccQ1MSYiZ1V8yxrNGrMKSjQSZKNRVBRZRCOr+MAH4iqIEUMEcc16fAQfxyRr1iSKu5sTGHCzCHhEZ9nIiOsAMsNM92x91beGoqbu7dszfXte3+9Yp+pW337cwXO/rrqPXvnyC/r47+jR1TokTx13ljz51JI2ofvOu6vk3nkPyJXqMz4w7145/LCRcqIK8hO+ery89Zt/k0cfWyhjxp4qd829V/ofdJA0NzUHzwz3RxXSmJoeOXKknPC1r+rgb+8oGXBC2ZFHHBE5sh04cEDQIqJS0MGjhnu9JWiNrrTdDFsHRqBmKnXFc8/Liy++rEeUhUBYPbvin+WTTz6RyyZcmve4ajqdlqOP+gu556458ubrv5Azzhgn9817SC6ZMKn1+l4cT73t9jtlwiV/p6d88cUAtm3bpkew//T4Inn7t7+T++65W9757VvqC8O1csAB++t1wuBGFthGfCHAFPjXv36C/Ocf/iAbNuSOWxcKZxmvXlMjf3XcaKmoqAh698hmM2qdL2VfZ7qdiJLVm0a0Lh247R8/FA3D1oFQW/bsczJzxnS5+gdX6VEiRpRxIZgR0I8tfEIH3qi/PDp4JB7coGLOHbPlueU/kzNOP00GDc7diWlXwy4Zd9opMvmqK3XQ1tV9Jvc/8LCcM/4CeXfVKpn8/StkxbKl+jmYEo/jzTd/JeXl5TL25DF6GaP4k8ecJM8sezb0UqYoH23+SDZv3qxD2wevuXVrXbBERKXQm4PW6AqBy7C1mBEiAvK737lIpqiwHXfaqXpEac5SjoIR7bLlK2TmbbfLlWr0ef7fnFfQJTgGnoPR4TV/f3XrCPbY6mr1BeBmPQLF7RknTLpCNm7cqKegJ102UR8nLeS9sD1PPPmUvoTInACG9/rbb1+oT+r6xauv6b64EKQIaZyJHDb13qjW6du3r57iJqLk9cap4zA6cHHmVCdh2AYQlItV+Kxd977cOO06qaqq0sE2/aZp+taDOB4adcIRRpp33PmPcuddc9Uo80q5/kfXxB5hFgLTyv9w2x1y1hmnyyMPPyDDhw0LHokP1xM/OH+BnHfu2W1OADt0+DAd8o8vXKxvyBEHRvMvv7JSh/TECZe0fkFw7dixU9+lCqNpIkoejoAxbHPwd8DfAzfy6AwMWwVB+5ga0S57doXM+fFsfd2tgcuCpl13jYwefaxUeEIC06KLFv9Ezjv/Qj0t++gjD6mw/lEiQQt/XL1a36ADJ0m15xpbnGE9R30hwBcJMyXtOvPM03UQ//DaaXkDF0H7y1/9q758adbMW3RYh8GlULi8CbeGJKLkMWj3hr+HHu13wh+mx4QtTs7x3RrQlPr6evWNpu0cQkNDg8x74CFZ8vRSmT1rpnzzGycGj+yBO0hhWtiEG65NfWXlqzLh8itkzF+fJgsXLZbLJl4qr698Sc48fZw+4SkpDQ2NMkCNtO2gvfmmG3TJp7b2f+S6G6ar0NsmN0+/oc11wQYCGEGMy4EmT/mhvp+07yQxTB3/ZMnTMmv2Hfr1fH872+bNH8vIESN4ghQRdarOmE7uMWGLWwD6bg1oCn5j1f3lHvzKzfd/MFVWvvq6LHxsgb7VYZzjnpgGxWvtt18/WaSeh7N/MfWKS2iSVl19jKxZu1YeeniBvmzH98UCxb7/MEIR197iJ/1wXe/DD96f9yfwEMQIcNzx6crJU/Q0urkUCaNT/PABblH5vHpd398OX2LeXfWe1KjPis+zfv0H+lKo40YfK336xL9vMxFREko9nZzKZDL6Lc3IBXVUwY7WbdfW1qoQqNbPb48PP94iI4YNCZZK5/fvvKvC4gW5adr17b6etr0QQAh63PAizqjU9sGGjfouUrgWeOOmTUHvHsMOOURumX6jvqQHMHV8z33z5LjjRssF3zo/9JiqD/6N8UXmv9dvkGnXX6ufi9d7aP4CGTBggHxv0mVtfqTBeHrpMzL/kUfli/p6/QUFd+OaPetW/TwiShb2q0MPjrdfHXhDJ545lIC6B+ONIyvUrtAdXtXU1Kg8GKoHD5ilRO22wwqYGtBOz3xfWuaOSvXqsCUi6qm6W9gO7y9y69kpGXtESo75ccc+T9ywTatcLHdWTSpse8w0MhERdS8mYOvnp2Xt7WkdtG9/ULr5XUwlq/FiSTBsiYiopBCyj1+a0gF76zkpWbaqRfa/Lqv7l78XrFQiubnd5DFsiYgoce4odsKJuelWBO3U5S06fOHtDaUb2YIe3QbtJDFsiYgoMe4o1mYHLcJ37mulDVojW4JD1gxbIiIqqrBRrM0NWt33XieFbQnelmFLRERFETWKtXmDVvVt3qabnSLpwGXYEhFRhyAwo0axNl/QQqlPjLIhZ5OeSmbYEhFRh5x8WNDIIyxoodQnRrmSPmzLsCUiog6Z+3pL3pObooK2s06MsuETJTmVzLAlIqIOwbFWBC7u/OQLzqighc46McqGT8CwJSKiLs+ELoLVnOyE6eHIoO3kE6NsSd5NimFLRERFhQA9d0FulHto/5SsvNYftNCZJ0a5kLXb9/xgWlExbImIqOjMKBf3Oh57uD9oobNPjLLhU/7pz8l8HoYtERElBoEbNk3cFU6MsuHTfLg11y42hi0RESXGjHB9usKJUa71nwaNImPYEhFRonAM150u7konRtk2b0vmCwDDloiIEjd12d4h1pVOjLLVbQ8aRZbaWlen/wItwTnPqO3i9mWz2TbtLVu2yMljxuh12+PDj7fIiGFDgiUiIuoo7FeHHhxvvzrwhhL87I2CM5JxCRDg92uTUvdg+8eRwyevlt/NqpJUKiXpdFrXbhsF7GW7z0B74P1bpGXuqFS6sXG3+Mru3U26+B4zxayDYgK4PYWIiHo+nJlsbnDRVTU0S0H553vMLkYqk8n9Tr0JPTcI3eIb2dbW1kp1dbV+fntwZEtEVFxdcWRbKh0Z2Q743mr5aP4wPSqNGtn6Cpga0E7PfD83sg36iIiIej01fkwEw5aIiChgDUyLimFLREQUKE8oFRm2REREgcryoFFkDFsiIqLAfn2CRpExbImIiAIDq4JGkTFsiYiIAsP7J3OGFMOWiIgocOTgoFFkDFsiIiIFY9oRg3LtYmPYEhERKbifxVFf4TQyERFRYhCzVZW5drExbImIiJSk7h4FDFsiIur1kLNphi0REVFycLyWYUtERJSgpMOQYUtERL2ankJOOA0ZtkRE1OslOYUMDFsiIurVkg5aYNgSEVGvlvQUMjBsiYio18KotgQDW4YtEVFPMGXKFF2oMGWlSFqFYUtE1M0xZNtHj2oZtkRElI8J2okTJ8qiRYt0m+IpK2ECMmyJiLopO2jHjh2r25QfBrPlKv1KNKjVGLZERN0Qg7ZjSnG5j61LhG06nZZMNhssERFRFF/Qos/0Y3+K/Wpc+1YEjR4gzrZgVFtqXSJs++xTIQ0Nu4MlIiIKExa0NuxP91H71biDt6OHBI0eIGpbWqePSzyqhbxhm3I+lbscS0tWmpszEjZ27bdvpWzf+WWwREREPlFBiz5zghT2p/up/Sp213H22Jd/MyX7V+J3b7o3bAO2xQe9+Hu0Z/q4GDnY4ZFtU916+f1LyyWTaVaBapVMVv9kURxV/faVbDYr9TsYuEREPvmC1vRhP4r9KfarcU8CmnBiSgZVdYmJzg7BNmBbfNDbGdPHRqy39qZ4ZpdsfG2eXHfbfHmpZodaKS3psjIpK1N1Oh3rH9g2sP+B8vkX2xm4REQeZtRqQhXcPuw/sR/F/tQoL4sXuE9enurWx27x2bENPjpo1d+hGNo1u6ukMpmMHoC2tOTGoahNG9+OAMtom8ey2UbZ8PO75e43tsoxF98o5x2elhNGV+t1vTCNrN4mrbY2Kt13NzVL3bb/02GNb2WVlftIWSluWklE1E3hZCgco8XUMfbTCNp9KsqDR3OwR2/O5OooNbUiVy1tka3bs1Lf0L5QKTVMHWNEi6CtHhp0WkzQxt2ampoaGTp0qA5VPXC0arsNaIN5zLQNvf7M96Vl7qhUZNiaNoodto3rn5dZ970p+188W245ZbDU1tZKdXXHw9bA/zQ7v2yQxt1NrYFPRERtYYePk0xx7gsGKWHUrlua1e40X+DCslUtsvSdFvmvLSJfNgWdXQxGsjgZCsdo800dW/mXlwlbX8C6bRRw2wba/rDdtkrun7FIto6fLfeMH94arih7wnanvLNwmjyx6Xy5bc5ZckgqW1jYqja+ieHt1CfRHzxtfbgc9T5qnax+PyyrDVHrlbUe2Vafx3fCVapMfYNxX4uIiAC70zgj3J4ASVDIiNYoVtia2oRt+t+362WlSVa/8pSs7n+hTD1neNDn0bRJNv6H2oivHSnDC50Dz2b0N6t0Gsd2McpVoZlRoen8y6Mv06I+fLAebqnVop6baV1RPab7sTFq4/WxYrNMREQ+2ENWqP02Zhh76t4S24Xtw3YWYxtNaHZUevmrG1TMqgxd/4L89NeD5KKrx8uhnhBtfcMdX8hWVR09ZGBuOTYVrC1qdKqSE6+FgpDEHwUjWBtCthwnWgXr6dDVgatGumad4LFgIVjOLRIRUTg94lP7y562y8T2YLuwfUlozZx2SMvK5+StTz6SV5e8IRUXTZZvHdqxF4ySViPPvV8ZQaoqZ2Tre/9c356wJSKi9sOxTAxiehJsT6kv74mbl+lJ4z6SZXfeJc/Lt2XquSppI9gv+r9f1Os6fjCr9cJWxbHZoGmY48QZTCnjGt7coWUiIioSHHmrUOGEXXPcPXlXYz47tqNYRxJNrtn5Fj/r/NL9qgZJU0OTyMADJPw8NstBw+TwASJb12zS08mAA8YIx+JokUxzswrYrA7gFK7f1dPIRforEhFRK2QIjm9211EuPrc+PluEiECOIc+SkF78osjF10+Rk9YvkZ++beIzXCp1qBx/5kiRTf8iv1zXrPv69OlTtEt0cCKU2lwpK0fAImitY7NERJQIPcpVodVdxjVJfF7kGPIM2jOqjVovLRdcIece/w35zqXHyuolz8hv8uetHHzSRXLWkCb59RPz5Odrtkvfvn31dG9R6OFsrrkHLgEKGzmr/mINqomIejHsenHMs5hTssWmQ1Z9Pn39bNBXLMgx5FkSA7z0pHMPF9yha/DY78qkw2rkyZ+9LZ/myc1U38Pk4huvkTMHb5E3HpshMxaskJ27GqSxsVGFYjY41pqbBi4YNjJ4jdx1vaqN1/JtvOpDr1k3615DREREBcPuVocuppdVG/tZzx64JMx743Pg8+iQTeDD4J7+gLC1FSt406Mqg1bZwXLKpeNl6JqnZak1nYw3MsWWOuAYufjWe2X2VWdLdWWtNH65U+o++0zq67e3uZSnELnLfNR76cDGtbWqU/X5v2Xh8qG0pHCjDLVucSayiYgIsNs1x0RRq/+04sRPOPP6eD/7/ZN6XwQtBm24X4OddW1yLywPnWWf1jtIgZmqzY0o927bZc+oc8/yunXrpKmpSXbu3Kmfd+CBB+q578pKk+ZERNTdqV2+4JzaXaqgRoKYqMFjhTI5hadi9FpZoUaXqqCOkWHt1tCQm439/PPPdVj269dPKioqZNSoUfokKTtY3WVTwG0bpt3mdo2A4HTrsOILXNPetWtX64ZgmYiIeqbtDSJ/+nOLfLhVZP2nIpu3tUjddpEdjSrQmoP7MasYQPZgCriyXGS/PiIDq0SG90/JkYNFRgwSOeorKakq4dgMYWgGhOY4LUrcoDXFvJZdg2m3hq0KSZWHewLRBKbdjipu6Ib1odivadp2DXabiIgoDl/Q2bXbtosvUPOFrCn2axp2u+CwdZcLCVlT7Ncwbbs23GUiIqIwdriBHYKmdtu+Eid03dewlw27HRm2pnbbYSVfyJpiv5Zp27XhLhMREYWxww3sEDS1244qcUa19muZtmG39wpbdIQFIOpiFfv1TNuuDXeZiIgojB1u4AYgarddjGJez1cbBYet3W5vsV/DtA27bfj6iIiIwA02sPvsAHTb7S32a5i2rzZCwxbsMHTbbgF7Ghnsx+1iHvPVYLejxF2PiIi6PzfAwtjrhYUgal+xH8M0sr3sFvsx0zbsNsQOW1O77ajiW8/uM23DboO7TEREFMYNOF/4oXbbUX2+Yq9n2nYNdhvahC24AWiW7drtDyvu42bZV4Pd9sn3OBER9XxumLl8weerTXGX3eI+bpZNbdpgt41YYRtWu8XXb/f52obdBneZiIgoHzfofCGIOqod1Wf3+2qw24Y3bMEXhKij2vmWTdtXG+6yLeoxIiLqXXyhZriPuaFo124737KvbdhtW8Fh69Zu2142ta/PrsFug7tMRESUjxt2viD01WF97rJp+2qw2wb6Ureu84ct+MLQV8dpR9WGu+wTZx0iIurZfKHmctcxy1F1nLavBrttQ3/ssAU3JO06bp9dg902fH1ERERx+ELPF4q+Om6fXRvuMrSuGxW24AvGsD738bAawtquqMeIiIjAF3SG/ZivHVW7fRDV52pd14StCjXQnS6737Sj+sJqCGuDuxylkHWJiKhnCAs1H3fdsHBsDcQ8NUT1ufZap9CwBbNs9/vacdez+fqIiIgK4QvAsIA0bbeGqPUMd9nY67l22KIjLOzcfnvZtH19ENYGd9kW9RgREZEtLPQgKiDztcMeB3fZaLOeG7YQFnJuv71caNvw9fnEXY+IiHqPsLBz+daz+wptg7tsa7OuL2whLNx8/XZfWBvyPTeOQtcnIqKeJyrofHzrR4VnWNvw9Rne9U3Yyoy1TDEiIqKEmJFtsEhERETFJ/L/6aRbB6xBFvwAAAAASUVORK5CYII=;" vertex="1" parent="1">
          <mxGeometry x="130" y="1970" width="475" height="773" as="geometry" />
        </mxCell>
        <mxCell id="M2dhcYQJsznp5afbBtEO-14" value="&lt;font style=&quot;vertical-align: inherit;&quot;&gt;&lt;font style=&quot;vertical-align: inherit;&quot;&gt;1&lt;/font&gt;&lt;/font&gt;" style="whiteSpace=wrap;html=1;aspect=fixed;fillColor=#e1d5e7;strokeColor=#9673a6;" vertex="1" parent="1">
          <mxGeometry x="150" y="2070" width="20" height="20" as="geometry" />
        </mxCell>
        <mxCell id="M2dhcYQJsznp5afbBtEO-15" value="&lt;font style=&quot;vertical-align: inherit;&quot;&gt;&lt;font style=&quot;vertical-align: inherit;&quot;&gt;2&lt;/font&gt;&lt;/font&gt;" style="whiteSpace=wrap;html=1;aspect=fixed;fillColor=#e1d5e7;strokeColor=#9673a6;" vertex="1" parent="1">
          <mxGeometry x="150" y="2140" width="20" height="20" as="geometry" />
        </mxCell>
        <mxCell id="M2dhcYQJsznp5afbBtEO-16" value="&lt;font style=&quot;vertical-align: inherit;&quot;&gt;&lt;font style=&quot;vertical-align: inherit;&quot;&gt;3&lt;/font&gt;&lt;/font&gt;" style="whiteSpace=wrap;html=1;aspect=fixed;fillColor=#e1d5e7;strokeColor=#9673a6;" vertex="1" parent="1">
          <mxGeometry x="150" y="2620" width="20" height="20" as="geometry" />
        </mxCell>
        <mxCell id="M2dhcYQJsznp5afbBtEO-17" value="&lt;font style=&quot;vertical-align: inherit;&quot;&gt;&lt;font style=&quot;vertical-align: inherit;&quot;&gt;4&lt;/font&gt;&lt;/font&gt;" style="whiteSpace=wrap;html=1;aspect=fixed;fillColor=#e1d5e7;strokeColor=#9673a6;" vertex="1" parent="1">
          <mxGeometry x="500" y="2620" width="20" height="20" as="geometry" />
        </mxCell>
      </root>
    </mxGraphModel>
  </diagram>
</mxfile>
